<?xml version="1.0" encoding="UTF-8"?>
<!DOCTYPE svg PUBLIC "-//W3C//DTD SVG 1.1//EN" "http://www.w3.org/Graphics/SVG/1.1/DTD/svg11.dtd">
<!-- Creator: CorelDRAW 2017 -->
<svg xmlns="http://www.w3.org/2000/svg" xml:space="preserve" width="73.3787mm" height="15.6201mm" version="1.1" style="shape-rendering:geometricPrecision; text-rendering:geometricPrecision; image-rendering:optimizeQuality; fill-rule:evenodd; clip-rule:evenodd"
viewBox="0 0 9228 1964"
 xmlns:xlink="http://www.w3.org/1999/xlink">
 <defs>
  <style type="text/css">
   <![CDATA[
    .str0 {stroke:#373435;stroke-width:10;stroke-miterlimit:10}
    .str1 {stroke:#373435;stroke-width:10;stroke-miterlimit:10}
    .fil0 {fill:#373435;fill-rule:nonzero}
   ]]>
  </style>
 </defs>
 <g id="Слой_x0020_1">
  <metadata id="CorelCorpID_0Corel-Layer"/>
  <path class="fil0 str0" d="M5416 643c0,68 42,108 118,108 69,0 102,-27 117,-80 0,-3 0,-4 -2,-5l-5 -2c-2,-1 -4,0 -4,2 -15,50 -43,73 -105,73 -67,0 -105,-36 -105,-96l0 -112c0,-60 36,-95 105,-95 60,0 89,22 103,70 1,2 3,3 5,2l5 -2c3,0 4,-2 3,-4 -16,-53 -48,-78 -116,-78 -76,0 -118,40 -118,108l0 111zm267 -213c-2,0 -4,1 -4,4l0 5c0,2 1,4 4,4l101 0 0 299c0,2 1,4 4,4l6 0c2,0 4,-1 4,-4l0 -299 101 0c2,0 4,-1 4,-4l0 -5c0,-2 -1,-4 -4,-4l-214 0zm472 0c-3,0 -5,1 -6,3l-107 209 -111 -209c-1,-2 -3,-3 -6,-3l-6 0c-3,0 -4,1 -2,4l119 223 -44 85c-1,2 -1,4 2,4l6 0c3,0 5,-1 6,-3l158 -308c1,-2 0,-4 -2,-4l-6 0zm75 0c-2,0 -4,1 -4,4l0 89c0,80 -6,135 -17,164 -6,14 -11,24 -16,30 -4,6 -10,12 -17,16l-20 0c-2,0 -4,1 -4,4l0 73c0,2 1,4 4,4l6 0c2,0 4,-1 4,-4l0 -64 265 0 0 64c0,2 1,4 4,4l6 0c2,0 4,-1 4,-4l0 -73c0,-2 -1,-4 -4,-4l-32 0 0 -299c0,-2 -1,-4 -4,-4l-174 0zm165 12l0 291 -201 0c8,-8 16,-16 21,-27 12,-21 24,-86 24,-183l0 -81 156 0zm321 -12c-2,0 -4,1 -4,2l-151 214 -54 79 0 0c1,-30 1,-59 1,-88l0 -204c0,-2 -1,-4 -4,-4l-6 0c-2,0 -4,1 -4,4l0 308c0,2 1,4 4,4l6 0c1,0 3,-1 4,-3l155 -220 50 -73 1 0c-1,24 -2,51 -2,81l0 211c0,2 1,4 3,4l6 0c2,0 4,-1 4,-4l0 -308c0,-2 -1,-4 -4,-4l-6 0zm79 87c0,51 28,81 78,85 -16,6 -28,19 -38,40l-47 99c-1,3 -1,4 2,4l5 0c3,0 5,-1 7,-3l45 -94c15,-32 34,-44 71,-44l83 0 0 138c0,2 1,4 4,4l6 0c2,0 4,-1 4,-4l0 -308c0,-2 -1,-4 -4,-4l-128 0c-55,0 -88,32 -88,87zm207 -75l0 149 -118 0c-48,0 -76,-26 -76,-74 0,-48 28,-75 76,-75l118 0zm244 -12c-2,0 -4,1 -4,4l0 89c0,80 -6,135 -17,164 -6,14 -11,24 -16,30 -4,6 -10,12 -17,16l-20 0c-2,0 -4,1 -4,4l0 73c0,2 1,4 4,4l6 0c2,0 4,-1 4,-4l0 -64 265 0 0 64c0,2 1,4 4,4l6 0c2,0 4,-1 4,-4l0 -73c0,-2 -1,-4 -4,-4l-32 0 0 -299c0,-2 -1,-4 -4,-4l-174 0zm165 12l0 291 -201 0c8,-8 16,-16 21,-27 12,-21 24,-86 24,-183l0 -81 156 0zm321 -12c-2,0 -4,1 -4,2l-151 214 -54 79 0 0c1,-30 1,-59 1,-88l0 -204c0,-2 -1,-4 -4,-4l-6 0c-2,0 -4,1 -4,4l0 308c0,2 1,4 4,4l6 0c1,0 3,-1 4,-3l155 -220 50 -73 1 0c-1,24 -2,51 -2,81l0 211c0,2 1,4 3,4l6 0c2,0 4,-1 4,-4l0 -308c0,-2 -1,-4 -4,-4l-6 0zm290 81c0,-55 -34,-87 -99,-87 -69,0 -102,25 -117,78 -1,2 0,4 2,5l5 1c2,1 4,0 4,-2 15,-49 43,-70 104,-70 57,0 88,27 88,75 0,37 -21,66 -62,66l-87 0c-2,0 -4,1 -4,4l0 5c0,2 1,4 4,4l88 0c44,0 70,28 70,71 0,50 -32,79 -96,79 -63,0 -92,-23 -107,-72 -1,-2 -2,-3 -4,-2l-5 2c-2,0 -3,2 -2,5 15,54 48,80 119,80 73,0 110,-33 110,-91 0,-39 -18,-68 -54,-79 30,-9 44,-38 44,-71zm177 -80c-1,-2 -3,-3 -5,-3l-5 0c-2,0 -4,1 -5,4l-126 310c-1,2 0,4 3,4l4 0c4,0 6,-1 7,-3l43 -107 153 0 43 107c1,2 3,3 6,3l5 0c3,0 4,-1 3,-4l-126 -311zm64 193l-145 0 69 -171c1,-2 2,-6 3,-12l0 0c0,4 2,8 3,12l69 171zm293 -270c1,-1 0,-3 -2,-3l-5 -2c-1,0 -3,0 -4,2 -8,28 -28,42 -58,42 -32,0 -50,-13 -58,-42 -1,-1 -2,-2 -4,-2l-5 2c-2,0 -3,2 -2,3 9,34 31,49 69,49 36,0 59,-16 69,-49zm35 76c-2,0 -4,1 -4,2l-151 214 -54 79 0 0c1,-30 1,-59 1,-88l0 -204c0,-2 -1,-4 -4,-4l-6 0c-2,0 -4,1 -4,4l0 308c0,2 1,4 4,4l6 0c1,0 3,-1 4,-3l155 -220 50 -73 1 0c-1,24 -2,51 -2,81l0 211c0,2 1,4 3,4l6 0c2,0 4,-1 4,-4l0 -308c0,-2 -1,-4 -4,-4l-6 0zm305 0c-2,0 -4,1 -4,4l0 146 -199 0 0 -146c0,-2 -1,-4 -4,-4l-6 0c-2,0 -4,1 -4,4l0 308c0,2 1,4 4,4l6 0c2,0 4,-1 4,-4l0 -150 199 0 0 150c0,2 1,4 4,4l6 0c2,0 4,-1 4,-4l0 -308c0,-2 -1,-4 -4,-4l-6 0zm200 1c-1,-2 -3,-3 -5,-3l-5 0c-2,0 -4,1 -5,4l-126 310c-1,2 0,4 3,4l4 0c4,0 6,-1 7,-3l43 -107 153 0 43 107c1,2 3,3 6,3l5 0c3,0 4,-1 3,-4l-126 -311zm64 193l-145 0 69 -171c1,-2 2,-6 3,-12l0 0c0,4 2,8 3,12l69 171z"/>
  <path class="fil0 str0" d="M5433 1029c0,11 3,22 8,32 11,22 20,32 39,51 -23,10 -36,18 -51,32 -16,14 -24,34 -24,59 0,23 8,42 24,57 16,16 35,24 57,24 18,0 35,-4 51,-11 16,-8 36,-23 63,-46l51 48c2,2 4,3 6,3l8 0c4,0 4,-1 2,-4l-58 -55 33 -32c1,-1 1,-3 0,-4l-4 -4c-2,-1 -4,-1 -5,0l-33 32 -100 -95 4 -2c29,-12 50,-24 62,-35 12,-12 18,-28 18,-49 0,-20 -7,-36 -21,-51 -15,-14 -32,-21 -54,-21 -22,0 -40,7 -55,21 -14,15 -21,32 -21,51zm139 0c3,21 -11,38 -20,47 -3,3 -8,6 -16,10 -8,4 -13,7 -16,8 -4,1 -10,4 -20,9l-7 3c-10,-9 -18,-17 -23,-23 -11,-12 -24,-34 -24,-55 0,-16 6,-31 18,-43 12,-12 27,-18 46,-18 18,0 34,6 46,18 12,12 18,26 18,43zm20 190c-24,22 -44,36 -59,43 -15,7 -30,11 -47,11 -19,0 -35,-7 -48,-20 -14,-13 -20,-30 -20,-49 0,-44 24,-64 71,-83l103 98zm340 -255c-1,-2 -3,-3 -5,-3l-5 0c-2,0 -4,1 -5,4l-126 310c-1,2 0,4 3,4l4 0c4,0 6,-1 7,-3l43 -107 153 0 43 107c1,2 3,3 6,3l5 0c3,0 4,-1 3,-4l-126 -311zm64 193l-145 0 69 -171c1,-2 2,-6 3,-12l0 0c0,4 2,8 3,12l69 171zm111 -194c-2,0 -4,1 -4,4l0 308c0,2 1,4 4,4l6 0c2,0 4,-1 4,-4l0 -122 110 0c60,0 97,-35 97,-94 0,-60 -37,-95 -97,-95l-120 0zm9 177l0 -165 109 0c53,0 84,31 84,83 0,51 -32,82 -84,82l-109 0zm362 -22l114 -152c2,-2 1,-4 -2,-4l-7 0c-3,0 -5,1 -7,3l-106 142 -106 -142c-2,-2 -4,-3 -7,-3l-8 0c-3,0 -4,1 -2,4l114 152 -117 155c-2,3 -2,5 1,5l8 0c3,0 5,-1 6,-3l110 -147 110 147c1,2 4,3 7,3l8 0c3,0 4,-2 1,-5l-117 -155zm385 -155c-2,0 -4,1 -4,2l-151 214 -54 79 0 0c1,-30 1,-59 1,-88l0 -204c0,-2 -1,-4 -4,-4l-6 0c-2,0 -4,1 -4,4l0 308c0,2 1,4 4,4l6 0c1,0 3,-1 4,-3l155 -220 50 -73 1 0c-1,24 -2,51 -2,81l0 211c0,2 1,4 3,4l6 0c2,0 4,-1 4,-4l0 -308c0,-2 -1,-4 -4,-4l-6 0zm61 0c-2,0 -4,1 -4,4l0 5c0,2 1,4 4,4l101 0 0 299c0,2 1,4 4,4l6 0c2,0 4,-1 4,-4l0 -299 101 0c2,0 4,-1 4,-4l0 -5c0,-2 -1,-4 -4,-4l-214 0zm269 0c-2,0 -4,1 -4,4l0 308c0,2 1,4 4,4l189 0c2,0 4,-1 4,-4l0 -5c0,-2 -1,-4 -4,-4l-179 0 0 -142 154 0c2,0 4,-1 4,-4l0 -5c0,-2 -1,-4 -4,-4l-154 0 0 -137 173 0c2,0 4,-1 4,-4l0 -5c0,-2 -1,-4 -4,-4l-182 0zm413 200c-13,-27 -33,-43 -58,-48l110 -148c2,-3 1,-4 -2,-4l-6 0c-4,0 -6,1 -8,3l-108 146c-3,0 -7,0 -12,0l-63 0 0 -146c0,-2 -1,-4 -4,-4l-6 0c-2,0 -4,1 -4,4l0 308c0,2 1,4 4,4l6 0c2,0 4,-1 4,-4l0 -150 63 0c38,0 56,12 72,44l53 106c1,2 4,3 7,3l5 0c3,0 4,-1 2,-4l-56 -111zm79 -200c-2,0 -4,1 -4,4l0 5c0,2 1,4 4,4l101 0 0 299c0,2 1,4 4,4l6 0c2,0 4,-1 4,-4l0 -299 101 0c2,0 4,-1 4,-4l0 -5c0,-2 -1,-4 -4,-4l-214 0zm472 0c-3,0 -5,1 -6,3l-107 209 -111 -209c-1,-2 -3,-3 -6,-3l-6 0c-3,0 -4,1 -2,4l119 223 -44 85c-1,2 -1,4 2,4l6 0c3,0 5,-1 6,-3l158 -308c1,-2 0,-4 -2,-4l-6 0zm57 0c-2,0 -4,1 -4,4l0 308c0,2 1,4 4,4l6 0c2,0 4,-1 4,-4l0 -122 110 0c60,0 97,-35 97,-94 0,-60 -37,-95 -97,-95l-120 0zm9 177l0 -165 109 0c53,0 84,31 84,83 0,51 -32,82 -84,82l-109 0zm388 138c60,0 97,-35 97,-95 0,-59 -37,-94 -97,-94l-110 0 0 -122c0,-2 -1,-4 -4,-4l-6 0c-2,0 -4,1 -4,4l0 308c0,2 1,4 4,4l120 0zm156 -4c0,2 1,4 3,4l6 0c2,0 4,-1 4,-4l0 -308c0,-2 -1,-4 -4,-4l-6 0c-2,0 -3,1 -3,4l0 308zm-157 -174c53,0 84,31 84,82 0,53 -32,83 -84,83l-109 0 0 -165 109 0z"/>
  <polygon class="fil0 str1" points="3875,1645 3700,1068 3518,1645 3493,1645 3311,1068 3137,1645 3107,1645 3311,972 3506,1591 3701,972 3904,1645 "/>
  <path class="fil0 str1" d="M2592 1646l-28 0 0 -676 188 0c39,0 71,3 96,9 25,6 48,17 68,31 28,19 50,46 66,78 16,32 24,67 24,102 0,53 -16,100 -48,138 -27,33 -60,53 -99,61l158 256 -101 0 0 -28 50 0 -155 -251 23 -2c41,-3 74,-21 102,-54 28,-33 42,-74 42,-120 0,-31 -7,-62 -21,-90 -14,-28 -33,-50 -57,-67 -17,-12 -37,-21 -59,-26 -22,-6 -52,-8 -89,-8l-160 0 0 647z"/>
  <path class="fil0 str1" d="M2483 1305c0,-46 -8,-90 -25,-130 -17,-40 -42,-77 -74,-109 -32,-31 -68,-55 -106,-71 -77,-31 -174,-32 -251,0 -38,16 -73,39 -105,70 -33,32 -58,69 -76,110 -17,41 -26,84 -26,129 0,96 32,177 95,243 63,65 142,98 235,98 48,0 94,-9 135,-28 42,-18 79,-46 112,-82 28,-31 50,-67 64,-105 14,-38 21,-81 21,-126zm-28 0c0,42 -7,81 -20,116 -13,35 -33,67 -59,96 -30,33 -65,58 -102,75 -38,17 -80,25 -124,25 -85,0 -157,-30 -215,-90 -58,-60 -87,-135 -87,-223 0,-41 8,-81 24,-118 16,-37 39,-71 69,-101 29,-28 61,-50 96,-64 35,-14 73,-22 113,-22 41,0 80,7 116,22 35,14 68,36 97,65 30,30 53,63 68,99 15,36 23,76 23,119z"/>
  <polygon class="fil0 str1" points="1502,1646 1410,1646 1410,970 1744,970 1744,999 1439,999 1439,1618 1473,1618 1473,1325 1730,1325 1730,1289 1487,1289 1487,1261 1759,1261 1759,1353 1502,1353 "/>
  <path class="fil0 str1" d="M5 1955l0 -703 191 -137 0 702 -191 138zm19 -690l0 653 92 -67 0 -586 -92 0zm111 -3l0 576 41 -30 0 -570 -41 24zm-90 -16l79 0 52 -31 0 -63 -131 94zm201 513l0 -1149 856 -600 0 1185 -4 3 -852 561zm19 -1113l0 1078 695 -458 -86 -103 -166 102 -443 -619zm623 504l88 106 108 -71 0 -645 -196 151 0 459zm-170 -484l0 571 151 -93 0 -463 215 -166 0 -128 -365 278zm-450 -48l431 602 0 -563 384 -292 0 -318 -815 571z"/>
  <polygon class="fil0 str1" points="4275,853 4247,853 4247,269 4116,269 4116,176 4471,176 4471,255 4443,255 4443,204 4144,204 4144,241 4275,241 "/>
  <polygon class="fil0 str1" points="4024,853 3996,853 3996,204 3946,204 3946,176 4024,176 "/>
  <path class="fil0 str1" d="M3120 853c-94,0 -173,-33 -236,-99 -63,-65 -95,-147 -95,-244 0,-45 9,-89 26,-130 17,-41 43,-78 76,-110 32,-32 68,-56 107,-71 39,-15 83,-23 130,-23 63,0 120,15 170,46 50,31 91,74 121,131l-25 13c-28,-52 -65,-92 -111,-120 -46,-28 -98,-42 -156,-42 -44,0 -84,7 -119,21 -35,14 -68,36 -98,65 -31,30 -54,64 -70,101 -16,37 -24,77 -24,119 0,89 29,164 87,224 58,60 130,90 216,90 83,0 155,-28 212,-84 54,-52 85,-119 93,-200l-372 0 0 -28 403 0 -1 15c-5,94 -40,173 -102,233 -63,61 -141,92 -232,92z"/>
  <polygon class="fil0 str1" points="2669,853 2640,853 2640,177 2720,176 2720,204 2669,205 "/>
  <path class="fil0 str1" d="M2121 853l-28 0 0 -677 188 0c39,0 71,3 96,9 25,6 48,17 68,31 28,19 50,46 66,78 16,32 24,66 24,102 0,53 -16,100 -48,138 -27,33 -60,53 -99,61l158 256 -101 0 0 -28 50 0 -155 -251 23 -2c41,-3 74,-21 102,-54 28,-33 41,-74 41,-120 0,-32 -7,-62 -21,-90 -14,-28 -33,-51 -57,-67 -17,-12 -37,-21 -59,-27 -22,-5 -52,-8 -89,-8l-160 0 0 649z"/>
  <polygon class="fil0 str1" points="3653,852 3561,852 3561,176 3589,176 3589,823 3625,823 3625,528 3946,528 3946,556 3653,556 "/>
  <polygon class="fil0 str1" points="1979,176 1804,757 1620,176 1595,176 1412,757 1236,176 1206,176 1411,854 1608,230 1804,854 2009,176 "/>
 </g>
</svg>
