<?xml version="1.0" encoding="UTF-8"?>
<!DOCTYPE svg PUBLIC "-//W3C//DTD SVG 1.1//EN" "http://www.w3.org/Graphics/SVG/1.1/DTD/svg11.dtd">
<!-- Creator: CorelDRAW 2017 -->
<svg xmlns="http://www.w3.org/2000/svg" xml:space="preserve" width="320px" height="217px" version="1.1" style="shape-rendering:geometricPrecision; text-rendering:geometricPrecision; image-rendering:optimizeQuality; fill-rule:evenodd; clip-rule:evenodd"
viewBox="0 0 215.15 146.06"
 xmlns:xlink="http://www.w3.org/1999/xlink">
 <defs>
  <style type="text/css">
   <![CDATA[
    .str0 {stroke:#373435;stroke-width:0.61;stroke-miterlimit:10}
    .fil0 {fill:#373435;fill-rule:nonzero}
   ]]>
  </style>
 </defs>
 <g id="Слой_x0020_1">
  <metadata id="CorelCorpID_0Corel-Layer"/>
  <path class="fil0 str0" d="M35.8 120.72c0,2.66 1.65,4.23 4.61,4.23 2.71,0 3.99,-1.04 4.56,-3.14 0.02,-0.1 0,-0.17 -0.09,-0.19l-0.2 -0.07c-0.09,-0.03 -0.14,0 -0.18,0.09 -0.57,1.94 -1.68,2.84 -4.09,2.84 -2.63,0 -4.09,-1.4 -4.09,-3.74l0 -4.39c0,-2.34 1.4,-3.72 4.09,-3.72 2.36,0 3.47,0.85 4.04,2.74 0.04,0.08 0.1,0.12 0.19,0.08l0.19 -0.07c0.11,-0.01 0.14,-0.07 0.11,-0.17 -0.61,-2.06 -1.89,-3.05 -4.53,-3.05 -2.98,0 -4.61,1.58 -4.61,4.21l0 4.35zm10.42 -8.32c-0.09,0 -0.14,0.05 -0.14,0.14l0 0.19c0,0.09 0.05,0.14 0.14,0.14l3.93 0 0 11.7c0,0.09 0.06,0.14 0.14,0.14l0.23 0c0.08,0 0.14,-0.05 0.14,-0.14l0 -11.7 3.93 0c0.09,0 0.14,-0.05 0.14,-0.14l0 -0.19c0,-0.09 -0.05,-0.14 -0.14,-0.14l-8.37 0zm18.46 0c-0.12,0 -0.21,0.04 -0.24,0.12l-4.2 8.18 -4.35 -8.18c-0.05,-0.08 -0.12,-0.12 -0.24,-0.12l-0.24 0c-0.11,0 -0.14,0.05 -0.09,0.14l4.65 8.72 -1.72 3.31c-0.05,0.09 -0.04,0.14 0.09,0.14l0.24 0c0.12,0 0.19,-0.04 0.24,-0.12l6.17 -12.05c0.06,-0.09 0.02,-0.14 -0.07,-0.14l-0.24 0zm2.95 0c-0.09,0 -0.14,0.05 -0.14,0.14l0 3.48c0,3.12 -0.23,5.29 -0.68,6.4 -0.22,0.56 -0.43,0.96 -0.6,1.18 -0.18,0.23 -0.4,0.45 -0.68,0.64l-0.8 0c-0.08,0 -0.14,0.05 -0.14,0.14l0 2.84c0,0.09 0.06,0.14 0.14,0.14l0.23 0c0.09,0 0.14,-0.05 0.14,-0.14l0 -2.51 10.36 0 0 2.51c0,0.09 0.06,0.14 0.14,0.14l0.23 0c0.09,0 0.14,-0.05 0.14,-0.14l0 -2.84c0,-0.09 -0.05,-0.14 -0.14,-0.14l-1.25 0 0 -11.7c0,-0.09 -0.05,-0.14 -0.14,-0.14l-6.81 0zm6.45 0.47l0 11.37 -7.87 0c0.33,-0.29 0.6,-0.64 0.83,-1.06 0.45,-0.83 0.94,-3.36 0.94,-7.16l0 -3.15 6.1 0zm12.55 -0.47c-0.09,0 -0.14,0.04 -0.16,0.09l-5.89 8.35 -2.12 3.11 -0.01 0c0.03,-1.18 0.05,-2.33 0.05,-3.45l0 -7.96c0,-0.09 -0.05,-0.14 -0.14,-0.14l-0.23 0c-0.08,0 -0.13,0.05 -0.13,0.14l0 12.03c0,0.09 0.05,0.14 0.13,0.14l0.23 0c0.05,0 0.12,-0.04 0.17,-0.1l6.05 -8.6 1.94 -2.85 0.04 0c-0.05,0.96 -0.07,2.01 -0.07,3.18l0 8.23c0,0.09 0.03,0.14 0.12,0.14l0.24 0c0.09,0 0.14,-0.05 0.14,-0.14l0 -12.03c0,-0.09 -0.05,-0.14 -0.14,-0.14l-0.22 0zm3.07 3.4c0,1.99 1.11,3.17 3.05,3.31 -0.61,0.23 -1.09,0.74 -1.48,1.56l-1.85 3.88c-0.05,0.11 -0.04,0.16 0.09,0.16l0.2 0c0.13,0 0.21,-0.04 0.26,-0.12l1.77 -3.69c0.57,-1.25 1.32,-1.74 2.79,-1.74l3.26 0 0 5.41c0,0.09 0.05,0.14 0.14,0.14l0.23 0c0.08,0 0.14,-0.05 0.14,-0.14l0 -12.03c0,-0.09 -0.06,-0.14 -0.14,-0.14l-5.01 0c-2.17,0 -3.45,1.25 -3.45,3.4zm8.09 -2.93l0 5.81 -4.61 0c-1.87,0 -2.96,-1.03 -2.96,-2.88 0,-1.87 1.09,-2.93 2.96,-2.93l4.61 0zm9.54 -0.47c-0.09,0 -0.14,0.05 -0.14,0.14l0 3.48c0,3.12 -0.23,5.29 -0.68,6.4 -0.22,0.56 -0.43,0.96 -0.6,1.18 -0.18,0.23 -0.4,0.45 -0.68,0.64l-0.8 0c-0.08,0 -0.14,0.05 -0.14,0.14l0 2.84c0,0.09 0.06,0.14 0.14,0.14l0.23 0c0.08,0 0.14,-0.05 0.14,-0.14l0 -2.51 10.36 0 0 2.51c0,0.09 0.05,0.14 0.14,0.14l0.23 0c0.08,0 0.14,-0.05 0.14,-0.14l0 -2.84c0,-0.09 -0.06,-0.14 -0.14,-0.14l-1.25 0 0 -11.7c0,-0.09 -0.05,-0.14 -0.14,-0.14l-6.81 0zm6.45 0.47l0 11.37 -7.87 0c0.33,-0.29 0.6,-0.64 0.83,-1.06 0.45,-0.83 0.93,-3.36 0.93,-7.16l0 -3.15 6.11 0zm12.55 -0.47c-0.09,0 -0.14,0.04 -0.16,0.09l-5.89 8.35 -2.12 3.11 -0.01 0c0.03,-1.18 0.05,-2.33 0.05,-3.45l0 -7.96c0,-0.09 -0.05,-0.14 -0.14,-0.14l-0.23 0c-0.08,0 -0.14,0.05 -0.14,0.14l0 12.03c0,0.09 0.06,0.14 0.14,0.14l0.23 0c0.05,0 0.12,-0.04 0.17,-0.1l6.05 -8.6 1.94 -2.85 0.04 0c-0.05,0.96 -0.07,2.01 -0.07,3.18l0 8.23c0,0.09 0.03,0.14 0.12,0.14l0.24 0c0.09,0 0.14,-0.05 0.14,-0.14l0 -12.03c0,-0.09 -0.05,-0.14 -0.14,-0.14l-0.22 0zm11.34 3.16c0,-2.17 -1.34,-3.4 -3.89,-3.4 -2.69,0 -3.99,0.97 -4.56,3.03 -0.03,0.09 0,0.16 0.09,0.19l0.21 0.05c0.08,0.04 0.14,0 0.17,-0.08 0.57,-1.93 1.67,-2.72 4.07,-2.72 2.24,0 3.44,1.05 3.44,2.94 0,1.46 -0.82,2.59 -2.43,2.59l-3.4 0c-0.08,0 -0.14,0.05 -0.14,0.14l0 0.19c0,0.08 0.06,0.13 0.14,0.13l3.44 0c1.73,0 2.72,1.1 2.72,2.78 0,1.96 -1.25,3.08 -3.77,3.08 -2.47,0 -3.6,-0.88 -4.17,-2.82 -0.04,-0.09 -0.09,-0.12 -0.18,-0.09l-0.2 0.07c-0.09,0.02 -0.11,0.09 -0.09,0.19 0.57,2.1 1.89,3.12 4.64,3.12 2.87,0 4.29,-1.3 4.29,-3.53 0,-1.55 -0.71,-2.67 -2.1,-3.07 1.16,-0.37 1.72,-1.48 1.72,-2.79zm6.93 -3.12c-0.03,-0.09 -0.1,-0.13 -0.21,-0.13l-0.21 0c-0.08,0 -0.15,0.06 -0.19,0.14l-4.9 12.12c-0.04,0.09 0,0.14 0.1,0.14l0.17 0c0.14,0 0.23,-0.04 0.26,-0.12l1.69 -4.18 5.96 0 1.68 4.18c0.04,0.08 0.12,0.12 0.24,0.12l0.21 0c0.11,0 0.14,-0.05 0.11,-0.14l-4.91 -12.13zm2.51 7.54l-5.65 0 2.71 -6.68c0.03,-0.08 0.07,-0.24 0.1,-0.47l0.02 0c0.01,0.16 0.07,0.32 0.12,0.47l2.7 6.68zm11.46 -10.56c0.04,-0.05 0.02,-0.11 -0.07,-0.12l-0.2 -0.07c-0.06,-0.02 -0.11,0.02 -0.14,0.07 -0.32,1.09 -1.08,1.64 -2.27,1.64 -1.25,0 -1.95,-0.52 -2.28,-1.64 -0.03,-0.05 -0.08,-0.09 -0.15,-0.07l-0.19 0.07c-0.09,0.01 -0.11,0.07 -0.07,0.12 0.36,1.32 1.21,1.91 2.69,1.91 1.42,0 2.32,-0.65 2.68,-1.91zm1.39 2.98c-0.09,0 -0.14,0.04 -0.16,0.09l-5.89 8.35 -2.12 3.11 -0.01 0c0.03,-1.18 0.05,-2.33 0.05,-3.45l0 -7.96c0,-0.09 -0.05,-0.14 -0.14,-0.14l-0.23 0c-0.08,0 -0.13,0.05 -0.13,0.14l0 12.03c0,0.09 0.05,0.14 0.13,0.14l0.23 0c0.05,0 0.12,-0.04 0.17,-0.1l6.05 -8.6 1.95 -2.85 0.03 0c-0.05,0.96 -0.07,2.01 -0.07,3.18l0 8.23c0,0.09 0.04,0.14 0.12,0.14l0.25 0c0.08,0 0.13,-0.05 0.13,-0.14l0 -12.03c0,-0.09 -0.05,-0.14 -0.13,-0.14l-0.23 0zm11.91 0c-0.09,0 -0.14,0.05 -0.14,0.14l0 5.69 -7.78 0 0 -5.69c0,-0.09 -0.05,-0.14 -0.14,-0.14l-0.23 0c-0.08,0 -0.14,0.05 -0.14,0.14l0 12.03c0,0.09 0.06,0.14 0.14,0.14l0.23 0c0.09,0 0.14,-0.05 0.14,-0.14l0 -5.86 7.78 0 0 5.86c0,0.09 0.05,0.14 0.14,0.14l0.24 0c0.09,0 0.14,-0.05 0.14,-0.14l0 -12.03c0,-0.09 -0.05,-0.14 -0.14,-0.14l-0.24 0zm7.8 0.04c-0.03,-0.09 -0.1,-0.13 -0.21,-0.13l-0.21 0c-0.08,0 -0.15,0.06 -0.19,0.14l-4.9 12.12c-0.04,0.09 0,0.14 0.1,0.14l0.17 0c0.14,0 0.23,-0.04 0.26,-0.12l1.69 -4.18 5.96 0 1.68 4.18c0.04,0.08 0.12,0.12 0.24,0.12l0.21 0c0.11,0 0.14,-0.05 0.11,-0.14l-4.91 -12.13zm2.51 7.54l-5.65 0 2.71 -6.68c0.03,-0.08 0.07,-0.24 0.1,-0.47l0.02 0c0.02,0.16 0.07,0.32 0.12,0.47l2.7 6.68z"/>
  <path class="fil0 str0" d="M36.48 135.79c0,0.43 0.1,0.85 0.31,1.26 0.41,0.85 0.8,1.27 1.54,1.98 -0.9,0.4 -1.4,0.69 -2.01,1.25 -0.62,0.55 -0.92,1.33 -0.92,2.32 0,0.89 0.31,1.63 0.94,2.24 0.6,0.6 1.35,0.92 2.22,0.92 0.71,0 1.38,-0.14 2.01,-0.44 0.6,-0.29 1.42,-0.88 2.44,-1.8l1.98 1.89c0.07,0.07 0.15,0.1 0.24,0.1l0.3 0c0.13,0 0.15,-0.05 0.07,-0.14l-2.26 -2.16 1.3 -1.23c0.05,-0.06 0.05,-0.12 0,-0.18l-0.14 -0.15c-0.07,-0.05 -0.14,-0.05 -0.19,0l-1.3 1.23 -3.92 -3.71 0.18 -0.09c1.12,-0.47 1.94,-0.92 2.41,-1.38 0.47,-0.47 0.71,-1.11 0.71,-1.93 0,-0.76 -0.28,-1.42 -0.83,-1.98 -0.58,-0.55 -1.27,-0.83 -2.12,-0.83 -0.87,0 -1.58,0.28 -2.13,0.83 -0.56,0.58 -0.83,1.23 -0.83,2zm5.44 -0.02c0.1,0.83 -0.42,1.49 -0.8,1.86 -0.12,0.12 -0.33,0.24 -0.62,0.39 -0.3,0.16 -0.52,0.28 -0.64,0.33 -0.14,0.06 -0.4,0.18 -0.8,0.35l-0.28 0.12c-0.4,-0.36 -0.69,-0.67 -0.9,-0.9 -0.42,-0.45 -0.92,-1.32 -0.92,-2.13 0,-0.64 0.23,-1.22 0.69,-1.68 0.47,-0.47 1.06,-0.71 1.79,-0.71 0.71,0 1.32,0.24 1.79,0.71 0.46,0.46 0.69,1.02 0.69,1.66zm0.76 7.42c-0.95,0.85 -1.71,1.42 -2.29,1.7 -0.57,0.28 -1.17,0.42 -1.82,0.42 -0.74,0 -1.37,-0.26 -1.89,-0.78 -0.53,-0.52 -0.79,-1.17 -0.79,-1.91 0,-1.72 0.92,-2.5 2.77,-3.26l4.02 3.83zm13.28 -9.95c-0.03,-0.09 -0.1,-0.12 -0.21,-0.12l-0.2 0c-0.09,0 -0.16,0.05 -0.19,0.14l-4.91 12.11c-0.04,0.09 0,0.14 0.1,0.14l0.18 0c0.13,0 0.22,-0.03 0.26,-0.12l1.68 -4.18 5.96 0 1.68 4.18c0.04,0.09 0.12,0.12 0.25,0.12l0.2 0c0.11,0 0.14,-0.05 0.11,-0.14l-4.91 -12.13zm2.52 7.54l-5.66 0 2.71 -6.67c0.03,-0.09 0.07,-0.25 0.1,-0.47l0.02 0c0.02,0.15 0.07,0.31 0.12,0.47l2.71 6.67zm4.35 -7.58c-0.09,0 -0.14,0.06 -0.14,0.14l0 12.03c0,0.09 0.05,0.14 0.14,0.14l0.22 0c0.09,0 0.14,-0.05 0.14,-0.14l0 -4.76 4.32 0c2.34,0 3.78,-1.39 3.78,-3.68 0,-2.34 -1.44,-3.73 -3.78,-3.73l-4.68 0zm0.36 6.94l0 -6.47 4.27 0c2.06,0 3.29,1.2 3.29,3.26 0,2.01 -1.23,3.21 -3.29,3.21l-4.27 0zm14.17 -0.87l4.45 -5.93c0.07,-0.08 0.04,-0.14 -0.09,-0.14l-0.27 0c-0.11,0 -0.19,0.04 -0.26,0.13l-4.17 5.53 -4.16 -5.53c-0.06,-0.09 -0.15,-0.13 -0.26,-0.13l-0.29 0c-0.12,0 -0.14,0.06 -0.07,0.14l4.46 5.93 -4.58 6.05c-0.09,0.12 -0.07,0.19 0.05,0.19l0.3 0c0.1,0 0.19,-0.03 0.24,-0.12l4.3 -5.74 4.31 5.74c0.06,0.09 0.14,0.12 0.26,0.12l0.3 0c0.12,0 0.14,-0.07 0.05,-0.19l-4.57 -6.05zm15.03 -6.07c-0.09,0 -0.14,0.04 -0.16,0.09l-5.9 8.36 -2.11 3.1 -0.02 0c0.04,-1.18 0.05,-2.32 0.05,-3.45l0 -7.96c0,-0.08 -0.05,-0.14 -0.13,-0.14l-0.23 0c-0.09,0 -0.14,0.06 -0.14,0.14l0 12.03c0,0.09 0.05,0.14 0.14,0.14l0.23 0c0.05,0 0.12,-0.03 0.17,-0.1l6.05 -8.6 1.94 -2.84 0.04 0c-0.06,0.95 -0.07,2.01 -0.07,3.17l0 8.23c0,0.09 0.03,0.14 0.12,0.14l0.24 0c0.09,0 0.14,-0.05 0.14,-0.14l0 -12.03c0,-0.08 -0.05,-0.14 -0.14,-0.14l-0.22 0zm2.37 0c-0.09,0 -0.14,0.06 -0.14,0.14l0 0.19c0,0.09 0.05,0.14 0.14,0.14l3.94 0 0 11.7c0,0.09 0.05,0.14 0.13,0.14l0.23 0c0.09,0 0.14,-0.05 0.14,-0.14l0 -11.7 3.93 0c0.09,0 0.14,-0.05 0.14,-0.14l0 -0.19c0,-0.08 -0.05,-0.14 -0.14,-0.14l-8.37 0zm10.52 0c-0.08,0 -0.14,0.06 -0.14,0.14l0 12.03c0,0.09 0.06,0.14 0.14,0.14l7.37 0c0.09,0 0.14,-0.05 0.14,-0.14l0 -0.19c0,-0.08 -0.05,-0.13 -0.14,-0.13l-7 0 0 -5.53 6.01 0c0.09,0 0.14,-0.06 0.14,-0.14l0 -0.21c0,-0.09 -0.05,-0.14 -0.14,-0.14l-6.01 0 0 -5.36 6.76 0c0.08,0 0.14,-0.05 0.14,-0.14l0 -0.19c0,-0.08 -0.06,-0.14 -0.14,-0.14l-7.13 0zm16.14 7.82c-0.52,-1.05 -1.28,-1.7 -2.27,-1.89l4.28 -5.77c0.09,-0.1 0.06,-0.16 -0.08,-0.16l-0.23 0c-0.14,0 -0.24,0.04 -0.29,0.13l-4.22 5.72c-0.1,-0.02 -0.26,-0.02 -0.48,-0.02l-2.46 0 0 -5.69c0,-0.08 -0.06,-0.14 -0.14,-0.14l-0.23 0c-0.08,0 -0.14,0.06 -0.14,0.14l0 12.03c0,0.09 0.06,0.14 0.14,0.14l0.23 0c0.08,0 0.14,-0.05 0.14,-0.14l0 -5.85 2.48 0c1.47,0 2.2,0.48 2.82,1.73l2.08 4.14c0.05,0.09 0.14,0.12 0.28,0.12l0.21 0c0.12,0 0.15,-0.05 0.07,-0.15l-2.19 -4.34zm3.11 -7.82c-0.09,0 -0.14,0.06 -0.14,0.14l0 0.19c0,0.09 0.05,0.14 0.14,0.14l3.93 0 0 11.7c0,0.09 0.05,0.14 0.14,0.14l0.22 0c0.09,0 0.14,-0.05 0.14,-0.14l0 -11.7 3.94 0c0.08,0 0.14,-0.05 0.14,-0.14l0 -0.19c0,-0.08 -0.06,-0.14 -0.14,-0.14l-8.37 0zm18.46 0c-0.12,0 -0.21,0.04 -0.25,0.13l-4.19 8.18 -4.35 -8.18c-0.05,-0.09 -0.12,-0.13 -0.24,-0.13l-0.25 0c-0.1,0 -0.14,0.06 -0.08,0.14l4.64 8.72 -1.71 3.31c-0.06,0.09 -0.04,0.14 0.08,0.14l0.25 0c0.12,0 0.19,-0.03 0.24,-0.12l6.17 -12.05c0.05,-0.08 0.02,-0.14 -0.07,-0.14l-0.24 0zm2.22 0c-0.09,0 -0.14,0.06 -0.14,0.14l0 12.03c0,0.09 0.05,0.14 0.14,0.14l0.22 0c0.09,0 0.14,-0.05 0.14,-0.14l0 -4.76 4.32 0c2.34,0 3.78,-1.39 3.78,-3.68 0,-2.34 -1.44,-3.73 -3.78,-3.73l-4.68 0zm0.36 6.94l0 -6.47 4.27 0c2.06,0 3.29,1.2 3.29,3.26 0,2.01 -1.23,3.21 -3.29,3.21l-4.27 0zm15.15 5.37c2.34,0 3.78,-1.38 3.78,-3.72 0,-2.29 -1.44,-3.68 -3.78,-3.68l-4.31 0 0 -4.77c0,-0.08 -0.06,-0.14 -0.14,-0.14l-0.23 0c-0.09,0 -0.14,0.06 -0.14,0.14l0 12.03c0,0.09 0.05,0.14 0.14,0.14l4.68 0zm6.09 -0.14c0,0.09 0.03,0.14 0.12,0.14l0.24 0c0.09,0 0.14,-0.05 0.14,-0.14l0 -12.03c0,-0.08 -0.05,-0.14 -0.14,-0.14l-0.24 0c-0.09,0 -0.12,0.06 -0.12,0.14l0 12.03zm-6.14 -6.79c2.06,0 3.29,1.19 3.29,3.21 0,2.06 -1.23,3.26 -3.29,3.26l-4.26 0 0 -6.47 4.26 0z"/>
  <polygon class="fil0" points="175.86,96.87 164.36,58.81 152.37,96.87 150.71,96.87 138.72,58.81 127.22,96.87 125.28,96.87 138.68,52.5 151.54,93.31 164.4,52.5 177.8,96.87 "/>
  <path class="fil0" d="M91.3 96.93l-1.87 0 0 -44.54 12.39 0c2.58,0 4.7,0.2 6.3,0.6 1.64,0.4 3.15,1.09 4.49,2.03 1.82,1.27 3.28,3 4.33,5.13 1.05,2.11 1.58,4.38 1.58,6.74 0,3.51 -1.07,6.57 -3.17,9.12 -1.78,2.17 -3.97,3.52 -6.53,4.03l10.44 16.88 -6.66 0 0 -1.88 3.3 0 -10.24 -16.55 1.54 -0.11c2.71,-0.2 4.9,-1.37 6.71,-3.56 1.81,-2.2 2.73,-4.87 2.73,-7.93 0,-2.07 -0.46,-4.06 -1.38,-5.91 -0.91,-1.84 -2.17,-3.33 -3.73,-4.43 -1.14,-0.81 -2.44,-1.39 -3.86,-1.74 -1.45,-0.37 -3.42,-0.55 -5.85,-0.55l-10.52 0 0 42.67z"/>
  <path class="fil0" d="M84.16 74.43c0,-3.03 -0.55,-5.91 -1.64,-8.54 -1.1,-2.64 -2.75,-5.05 -4.91,-7.17 -2.11,-2.07 -4.47,-3.64 -7.01,-4.69 -5.05,-2.07 -11.44,-2.1 -16.52,-0.01 -2.51,1.04 -4.84,2.6 -6.92,4.64 -2.16,2.12 -3.83,4.56 -4.98,7.25 -1.14,2.69 -1.71,5.56 -1.71,8.52 0,6.32 2.1,11.7 6.25,16 4.16,4.3 9.37,6.49 15.5,6.49 3.19,0 6.19,-0.62 8.92,-1.83 2.74,-1.21 5.22,-3.03 7.38,-5.4 1.87,-2.07 3.3,-4.4 4.23,-6.93 0.94,-2.52 1.41,-5.33 1.41,-8.33zm-1.87 0c0,2.78 -0.44,5.36 -1.29,7.68 -0.86,2.31 -2.16,4.43 -3.87,6.32 -1.98,2.18 -4.25,3.84 -6.74,4.95 -2.5,1.1 -5.25,1.66 -8.17,1.66 -5.6,0 -10.36,-1.99 -14.15,-5.92 -3.8,-3.93 -5.73,-8.87 -5.73,-14.69 0,-2.7 0.53,-5.33 1.57,-7.78 1.05,-2.47 2.58,-4.7 4.56,-6.65 1.91,-1.87 4.04,-3.3 6.32,-4.25 2.29,-0.94 4.81,-1.42 7.48,-1.42 2.73,0 5.3,0.49 7.62,1.44 2.32,0.95 4.47,2.39 6.41,4.29 1.98,1.94 3.49,4.15 4.49,6.55 0.99,2.4 1.5,5.04 1.5,7.82z"/>
  <polygon class="fil0" points="19.45,96.92 13.44,96.92 13.44,52.39 35.45,52.39 35.45,54.26 15.32,54.26 15.32,95.04 17.58,95.04 17.58,75.74 34.51,75.74 34.51,73.39 18.51,73.39 18.51,71.52 36.38,71.52 36.38,77.61 19.45,77.61 "/>
  <polygon class="fil0" points="202.25,44.66 200.38,44.66 200.38,6.19 191.73,6.19 191.73,0.02 215.15,0.02 215.15,5.25 213.28,5.25 213.28,1.9 193.6,1.9 193.6,4.32 202.25,4.32 "/>
  <polygon class="fil0" points="185.71,44.66 183.83,44.66 183.83,1.9 180.58,1.9 180.58,0.02 185.71,0.02 "/>
  <path class="fil0" d="M126.1 44.66c-6.17,0 -11.41,-2.18 -15.57,-6.5 -4.16,-4.3 -6.27,-9.71 -6.27,-16.07 0,-2.99 0.58,-5.87 1.71,-8.56 1.15,-2.68 2.83,-5.13 5.01,-7.28 2.12,-2.09 4.5,-3.67 7.06,-4.69 2.57,-1.02 5.45,-1.54 8.57,-1.54 4.15,0 7.93,1.03 11.24,3.04 3.3,2.01 5.98,4.91 7.97,8.62l-1.65 0.88c-1.83,-3.41 -4.28,-6.07 -7.3,-7.9 -3.01,-1.83 -6.46,-2.76 -10.26,-2.76 -2.88,0 -5.53,0.47 -7.87,1.4 -2.33,0.93 -4.5,2.37 -6.44,4.29 -2.01,1.97 -3.56,4.22 -4.6,6.67 -1.04,2.46 -1.56,5.09 -1.56,7.83 0,5.86 1.93,10.83 5.74,14.77 3.79,3.94 8.58,5.93 14.22,5.93 5.51,0 10.21,-1.85 13.98,-5.51 3.56,-3.45 5.61,-7.87 6.11,-13.15l-24.55 0 0 -1.88 26.55 0 -0.05 0.99c-0.36,6.21 -2.63,11.38 -6.76,15.38 -4.13,4.01 -9.27,6.04 -15.28,6.04z"/>
  <polygon class="fil0" points="96.38,44.66 94.51,44.66 94.51,0.09 99.74,0.02 99.76,1.9 96.38,1.94 "/>
  <path class="fil0" d="M60.28 44.66l-1.87 0 0 -44.64 12.39 0c2.58,0 4.71,0.21 6.3,0.6 1.65,0.41 3.16,1.09 4.49,2.04 1.82,1.27 3.28,3 4.33,5.12 1.05,2.11 1.58,4.38 1.58,6.75 0,3.5 -1.06,6.57 -3.16,9.12 -1.79,2.16 -3.98,3.52 -6.54,4.03l10.44 16.87 -6.66 0 0 -1.87 3.3 0 -10.24 -16.55 1.54 -0.12c2.71,-0.19 4.9,-1.36 6.71,-3.55 1.82,-2.21 2.73,-4.87 2.73,-7.93 0,-2.08 -0.46,-4.07 -1.38,-5.92 -0.91,-1.84 -2.16,-3.33 -3.72,-4.42 -1.15,-0.81 -2.45,-1.39 -3.87,-1.75 -1.45,-0.36 -3.42,-0.54 -5.85,-0.54l-10.52 0 0 42.76z"/>
  <polygon class="fil0" points="161.25,44.55 155.15,44.55 155.15,0.02 157.03,0.02 157.03,42.68 159.37,42.68 159.37,23.23 180.58,23.23 180.58,25.1 161.25,25.1 "/>
  <polygon class="fil0" points="50.93,0 39.36,38.32 27.28,0 25.61,0 13.54,38.32 1.96,0 0,0 13.5,44.68 26.45,3.59 39.39,44.68 52.89,0 "/>
 </g>
</svg>
