<?xml version="1.0" encoding="UTF-8"?>
<!DOCTYPE svg PUBLIC "-//W3C//DTD SVG 1.1//EN" "http://www.w3.org/Graphics/SVG/1.1/DTD/svg11.dtd">
<!-- Creator: CorelDRAW 2017 -->
<svg xmlns="http://www.w3.org/2000/svg" xml:space="preserve" width="346px" height="240px" version="1.1" style="shape-rendering:geometricPrecision; text-rendering:geometricPrecision; image-rendering:optimizeQuality; fill-rule:evenodd; clip-rule:evenodd"
viewBox="0 0 346 240"
 xmlns:xlink="http://www.w3.org/1999/xlink">
 <defs>
  <style type="text/css">
   <![CDATA[
    .fil0 {fill:#DDDDDD;fill-rule:nonzero}
   ]]>
  </style>
 </defs>
 <g id="РЎР_x00bb_РѕР_x2116__x0020_1">
  <metadata id="CorelCorpID_0Corel-Layer"/>
  <path class="fil0" d="M142.22 80.61l46.49 64.95 0 -60.8 41.48 -31.52 0 -34.31 -87.97 61.68zm48.54 5.16l0 0 0 61.66 16.27 -10.03 0 -49.92 23.16 -17.9 0 -13.77 -39.43 29.96zm18.32 52.27l0 0 9.49 11.45 11.62 -7.66 0 -69.66 -21.11 16.31 0 49.56zm-67.2 -54.39l0 0 0 116.35 74.97 -49.39 -9.26 -11.16 -17.88 11.03 -47.83 -66.83zm-2.05 120.15l0 0 0 -124.02 92.41 -64.78 0 127.93 -0.46 0.31 -91.95 60.56zm-21.7 -55.34l0 0 8.52 0 5.63 -3.31 0 -6.83 -14.15 10.14zm9.69 1.69l0 0 0 62.11 4.46 -3.23 0 -61.51 -4.46 2.63zm-12.02 0.36l0 0 0 70.48 9.98 -7.24 0 -63.24 -9.98 0zm-2.04 74.49l0 0 0 -75.92 20.57 -14.75 0 75.74 -20.57 14.93z"/>
 </g>
</svg>
