<?xml version="1.0" encoding="UTF-8"?>
<!DOCTYPE svg PUBLIC "-//W3C//DTD SVG 1.1//EN" "http://www.w3.org/Graphics/SVG/1.1/DTD/svg11.dtd">
<!-- Creator: CorelDRAW 2017 -->
<svg xmlns="http://www.w3.org/2000/svg" xml:space="preserve" width="2.51328in" height="0.46335in" version="1.1" style="shape-rendering:geometricPrecision; text-rendering:geometricPrecision; image-rendering:optimizeQuality; fill-rule:evenodd; clip-rule:evenodd"
viewBox="0 0 2954.4 544.67"
 xmlns:xlink="http://www.w3.org/1999/xlink">
 <defs>
  <style type="text/css">
   <![CDATA[
    .str0 {stroke:#373435;stroke-width:3.68;stroke-miterlimit:22.9256}
    .fil0 {fill:#373435;fill-rule:nonzero}
   ]]>
  </style>
 </defs>
 <g id="Слой_x0020_1">
  <metadata id="CorelCorpID_0Corel-Layer"/>
  <path class="fil0 str0" d="M1551.78 173.72c0,25.02 15.46,39.75 43.42,39.75 25.39,0 37.54,-9.94 43.06,-29.44 0,-1.11 0,-1.47 -0.74,-1.84l-1.84 -0.74c-0.74,-0.37 -1.47,0 -1.47,0.74 -5.52,18.4 -15.82,26.87 -38.64,26.87 -24.66,0 -38.64,-13.25 -38.64,-35.33l0 -41.22c0,-22.08 13.25,-34.96 38.64,-34.96 22.08,0 32.75,8.09 37.9,25.76 0.37,0.74 1.11,1.11 1.84,0.74l1.84 -0.74c1.11,0 1.47,-0.74 1.11,-1.47 -5.89,-19.5 -17.67,-28.7 -42.69,-28.7 -27.97,0 -43.42,14.72 -43.42,39.75l0 40.85 -0.37 0zm98.26 -78.39c-0.74,0 -1.47,0.37 -1.47,1.47l0 1.84c0,0.74 0.37,1.47 1.47,1.47l37.17 0 0 110.04c0,0.74 0.37,1.47 1.47,1.47l2.21 0c0.74,0 1.47,-0.37 1.47,-1.47l0 -110.04 37.17 0c0.74,0 1.47,-0.37 1.47,-1.47l0 -1.84c0,-0.74 -0.37,-1.47 -1.47,-1.47l-78.75 0 -0.73 0zm173.7 0c-1.11,0 -1.84,0.37 -2.21,1.11l-39.38 76.91 -40.85 -76.91c-0.37,-0.74 -1.11,-1.11 -2.21,-1.11l-2.21 0c-1.11,0 -1.47,0.37 -0.74,1.47l43.79 82.06 -16.19 31.28c-0.37,0.74 -0.37,1.47 0.74,1.47l2.21 0c1.11,0 1.84,-0.37 2.21,-1.11l58.15 -113.34c0.37,-0.74 0,-1.47 -0.74,-1.47l-2.21 0 -0.37 -0.37zm27.6 0c-0.74,0 -1.47,0.37 -1.47,1.47l0 32.75c0,29.44 -2.21,49.68 -6.26,60.35 -2.21,5.15 -4.05,8.83 -5.89,11.04 -1.47,2.21 -3.68,4.42 -6.26,5.89l-7.36 0c-0.74,0 -1.47,0.37 -1.47,1.47l0 26.87c0,0.74 0.37,1.47 1.47,1.47l2.21 0c0.74,0 1.47,-0.37 1.47,-1.47l0 -23.55 97.52 0 0 23.55c0,0.74 0.37,1.47 1.47,1.47l2.21 0c0.74,0 1.47,-0.37 1.47,-1.47l0 -26.87c0,-0.74 -0.37,-1.47 -1.47,-1.47l-11.78 0 0 -110.04c0,-0.74 -0.37,-1.47 -1.47,-1.47l-64.03 0 -0.37 0zm60.72 4.42l0 107.09 -73.97 0c2.94,-2.94 5.89,-5.89 7.73,-9.94 4.42,-7.73 8.83,-31.65 8.83,-67.35l0 -29.81 57.41 0zm118.13 -4.42c-0.74,0 -1.47,0.37 -1.47,0.74l-55.57 78.75 -19.87 29.07 0 0c0.37,-11.04 0.37,-21.71 0.37,-32.39l0 -75.08c0,-0.74 -0.37,-1.47 -1.47,-1.47l-2.21 0c-0.74,0 -1.47,0.37 -1.47,1.47l0 113.34c0,0.74 0.37,1.47 1.47,1.47l2.21 0c0.37,0 1.11,-0.37 1.47,-1.11l57.04 -80.96 18.4 -26.87 0.37 0c-0.37,8.83 -0.74,18.77 -0.74,29.81l0 77.65c0,0.74 0.37,1.47 1.11,1.47l2.21 0c0.74,0 1.47,-0.37 1.47,-1.47l0 -113.34c0,-0.74 -0.37,-1.47 -1.47,-1.47l-2.21 0 0.36 0.37zm29.07 32.02c0,18.77 10.3,29.81 28.7,31.28 -5.89,2.21 -10.3,6.99 -13.99,14.72l-17.29 36.43c-0.37,1.11 -0.37,1.47 0.74,1.47l1.84 0c1.11,0 1.84,-0.37 2.58,-1.11l16.56 -34.59c5.52,-11.78 12.51,-16.19 26.13,-16.19l30.54 0 0 50.78c0,0.74 0.37,1.47 1.47,1.47l2.21 0c0.74,0 1.47,-0.37 1.47,-1.47l0 -113.34c0,-0.74 -0.37,-1.47 -1.47,-1.47l-47.1 0c-20.24,0 -32.39,11.78 -32.39,32.02l0 0zm76.18 -27.6l0 54.83 -43.42 0c-17.67,0 -27.97,-9.57 -27.97,-27.23 0,-17.67 10.3,-27.6 27.97,-27.6l43.42 0zm89.79 -4.42c-0.74,0 -1.47,0.37 -1.47,1.47l0 32.75c0,29.44 -2.21,49.68 -6.26,60.35 -2.21,5.15 -4.05,8.83 -5.89,11.04 -1.47,2.21 -3.68,4.42 -6.26,5.89l-7.36 0c-0.74,0 -1.47,0.37 -1.47,1.47l0 26.87c0,0.74 0.37,1.47 1.47,1.47l2.21 0c0.74,0 1.47,-0.37 1.47,-1.47l0 -23.55 97.52 0 0 23.55c0,0.74 0.37,1.47 1.47,1.47l2.21 0c0.74,0 1.47,-0.37 1.47,-1.47l0 -26.87c0,-0.74 -0.37,-1.47 -1.47,-1.47l-11.78 0 0 -110.04c0,-0.74 -0.37,-1.47 -1.47,-1.47l-64.03 0 -0.37 0zm60.72 4.42l0 107.09 -73.97 0c2.94,-2.94 5.89,-5.89 7.73,-9.94 4.42,-7.73 8.83,-31.65 8.83,-67.35l0 -29.81 57.41 0zm118.13 -4.42c-0.74,0 -1.47,0.37 -1.47,0.74l-55.57 78.75 -19.87 29.07 0 0c0.37,-11.04 0.37,-21.71 0.37,-32.39l0 -75.08c0,-0.74 -0.37,-1.47 -1.47,-1.47l-2.21 0c-0.74,0 -1.47,0.37 -1.47,1.47l0 113.34c0,0.74 0.37,1.47 1.47,1.47l2.21 0c0.37,0 1.11,-0.37 1.47,-1.11l57.04 -80.96 18.4 -26.87 0.37 0c-0.37,8.83 -0.74,18.77 -0.74,29.81l0 77.65c0,0.74 0.37,1.47 1.11,1.47l2.21 0c0.74,0 1.47,-0.37 1.47,-1.47l0 -113.34c0,-0.74 -0.37,-1.47 -1.47,-1.47l-2.21 0 0.36 0.37zm106.72 29.81c0,-20.24 -12.51,-32.02 -36.43,-32.02 -25.39,0 -37.54,9.2 -43.06,28.7 -0.37,0.74 0,1.47 0.74,1.84l1.84 0.37c0.74,0.37 1.47,0 1.47,-0.74 5.52,-18.03 15.82,-25.76 38.27,-25.76 20.97,0 32.39,9.94 32.39,27.6 0,13.62 -7.73,24.29 -22.82,24.29l-32.02 0c-0.74,0 -1.47,0.37 -1.47,1.47l0 1.84c0,0.74 0.37,1.47 1.47,1.47l32.39 0c16.19,0 25.76,10.3 25.76,26.13 0,18.4 -11.78,29.07 -35.33,29.07 -23.19,0 -33.86,-8.46 -39.38,-26.5 -0.37,-0.74 -0.74,-1.11 -1.47,-0.74l-1.84 0.74c-0.74,0 -1.11,0.74 -0.74,1.84 5.52,19.87 17.67,29.44 43.79,29.44 26.87,0 40.48,-12.14 40.48,-33.49 0,-14.35 -6.62,-25.02 -19.87,-29.07 11.04,-3.31 16.19,-13.99 16.19,-26.13l-0.37 -0.37zm65.14 -29.44c-0.37,-0.74 -1.11,-1.11 -1.84,-1.11l-1.84 0c-0.74,0 -1.47,0.37 -1.84,1.47l-46.37 114.08c-0.37,0.74 0,1.47 1.11,1.47l1.47 0c1.47,0 2.21,-0.37 2.58,-1.11l15.82 -39.38 56.3 0 15.82 39.38c0.37,0.74 1.11,1.11 2.21,1.11l1.84 0c1.11,0 1.47,-0.37 1.11,-1.47l-46.37 -114.45 0 0zm23.55 71.03l-53.36 0 25.39 -62.93c0.37,-0.74 0.74,-2.21 1.11,-4.42l0 0c0,1.47 0.74,2.94 1.11,4.42l25.39 62.93 0.36 0zm107.83 -99.36c0.37,-0.37 0,-1.11 -0.74,-1.11l-1.84 -0.74c-0.37,0 -1.11,0 -1.47,0.74 -2.94,10.3 -10.3,15.46 -21.34,15.46 -11.78,0 -18.4,-4.79 -21.34,-15.46 -0.37,-0.37 -0.74,-0.74 -1.47,-0.74l-1.84 0.74c-0.74,0 -1.11,0.74 -0.74,1.11 3.31,12.51 11.41,18.03 25.39,18.03 13.25,0 21.71,-5.89 25.39,-18.03zm12.88 27.97c-0.74,0 -1.47,0.37 -1.47,0.74l-55.57 78.75 -19.87 29.07 0 0c0.37,-11.04 0.37,-21.71 0.37,-32.39l0 -75.08c0,-0.74 -0.37,-1.47 -1.47,-1.47l-2.21 0c-0.74,0 -1.47,0.37 -1.47,1.47l0 113.34c0,0.74 0.37,1.47 1.47,1.47l2.21 0c0.37,0 1.11,-0.37 1.47,-1.11l57.04 -80.96 18.4 -26.87 0.37 0c-0.37,8.83 -0.74,18.77 -0.74,29.81l0 77.65c0,0.74 0.37,1.47 1.11,1.47l2.21 0c0.74,0 1.47,-0.37 1.47,-1.47l0 -113.34c0,-0.74 -0.37,-1.47 -1.47,-1.47l-2.21 0 0.36 0.37zm112.24 0c-0.74,0 -1.47,0.37 -1.47,1.47l0 53.73 -73.23 0 0 -53.73c0,-0.74 -0.37,-1.47 -1.47,-1.47l-2.21 0c-0.74,0 -1.47,0.37 -1.47,1.47l0 113.34c0,0.74 0.37,1.47 1.47,1.47l2.21 0c0.74,0 1.47,-0.37 1.47,-1.47l0 -55.2 73.23 0 0 55.2c0,0.74 0.37,1.47 1.47,1.47l2.21 0c0.74,0 1.47,-0.37 1.47,-1.47l0 -113.34c0,-0.74 -0.37,-1.47 -1.47,-1.47l-2.21 0zm73.6 0.37c-0.37,-0.74 -1.11,-1.11 -1.84,-1.11l-1.84 0c-0.74,0 -1.47,0.37 -1.84,1.47l-46.37 114.08c-0.37,0.74 0,1.47 1.11,1.47l1.47 0c1.47,0 2.21,-0.37 2.58,-1.11l15.82 -39.38 56.3 0 15.82 39.38c0.37,0.74 1.11,1.11 2.21,1.11l1.84 0c1.11,0 1.47,-0.37 1.11,-1.47l-46.37 -114.45 0 0zm23.55 71.03l-53.36 0 25.39 -62.93c0.37,-0.74 0.74,-2.21 1.11,-4.42l0 0c0,1.47 0.74,2.94 1.11,4.42l25.39 62.93 0.36 0z"/>
  <path class="fil0 str0" d="M1558.04 315.77c0,4.05 1.11,8.09 2.94,11.78 4.05,8.09 7.36,11.78 14.35,18.77 -8.46,3.68 -13.25,6.62 -18.77,11.78 -5.89,5.15 -8.83,12.51 -8.83,21.71 0,8.46 2.94,15.46 8.83,20.97 5.89,5.89 12.88,8.83 20.97,8.83 6.62,0 12.88,-1.47 18.77,-4.05 5.89,-2.94 13.25,-8.46 23.19,-16.93l18.77 17.67c0.74,0.74 1.47,1.11 2.21,1.11l2.94 0c1.47,0 1.47,-0.37 0.74,-1.47l-21.34 -20.24 12.14 -11.78c0.37,-0.37 0.37,-1.11 0,-1.47l-1.47 -1.47c-0.74,-0.37 -1.47,-0.37 -1.84,0l-12.14 11.78 -36.8 -34.96 1.47 -0.74c10.67,-4.42 18.4,-8.83 22.82,-12.88 4.42,-4.42 6.62,-10.3 6.62,-18.03 0,-7.36 -2.58,-13.25 -7.73,-18.77 -5.52,-5.15 -11.78,-7.73 -19.87,-7.73 -8.09,0 -14.72,2.58 -20.24,7.73 -5.15,5.52 -7.73,11.78 -7.73,18.77l0.01 -0.37zm51.15 0c1.11,7.73 -4.05,13.99 -7.36,17.29 -1.11,1.11 -2.94,2.21 -5.89,3.68 -2.94,1.47 -4.79,2.58 -5.89,2.94 -1.47,0.37 -3.68,1.47 -7.36,3.31l-2.58 1.11c-3.68,-3.31 -6.62,-6.26 -8.46,-8.46 -4.05,-4.42 -8.83,-12.51 -8.83,-20.24 0,-5.89 2.21,-11.41 6.62,-15.82 4.42,-4.42 9.94,-6.62 16.93,-6.62 6.62,0 12.51,2.21 16.93,6.62 4.42,4.42 6.62,9.57 6.62,15.82l-0.74 0.37zm7.36 69.92c-8.83,8.09 -16.19,13.25 -21.71,15.82 -5.52,2.58 -11.04,4.05 -17.29,4.05 -6.99,0 -12.88,-2.58 -17.67,-7.36 -5.15,-4.79 -7.36,-11.04 -7.36,-18.03 0,-16.19 8.83,-23.55 26.13,-30.54l37.9 36.07 0 -0zm125.12 -93.84c-0.37,-0.74 -1.11,-1.11 -1.84,-1.11l-1.84 0c-0.74,0 -1.47,0.37 -1.84,1.47l-46.37 114.08c-0.37,0.74 0,1.47 1.11,1.47l1.47 0c1.47,0 2.21,-0.37 2.58,-1.11l15.82 -39.38 56.3 0 15.82 39.38c0.37,0.74 1.11,1.11 2.21,1.11l1.84 0c1.11,0 1.47,-0.37 1.11,-1.47l-46.37 -114.45 0 0zm23.55 71.03l-53.36 0 25.39 -62.93c0.37,-0.74 0.74,-2.21 1.11,-4.42l0 0c0,1.47 0.74,2.94 1.11,4.42l25.39 62.93 0.36 0zm40.85 -71.4c-0.74,0 -1.47,0.37 -1.47,1.47l0 113.34c0,0.74 0.37,1.47 1.47,1.47l2.21 0c0.74,0 1.47,-0.37 1.47,-1.47l0 -44.9 40.48 0c22.08,0 35.7,-12.88 35.7,-34.59 0,-22.08 -13.62,-34.96 -35.7,-34.96l-44.16 0 0 -0.37zm3.31 65.14l0 -60.72 40.11 0c19.5,0 30.91,11.41 30.91,30.54 0,18.77 -11.78,30.17 -30.91,30.17l-40.11 0zm133.22 -8.1l41.95 -55.94c0.74,-0.74 0.37,-1.47 -0.74,-1.47l-2.58 0c-1.11,0 -1.84,0.37 -2.58,1.11l-39.01 52.25 -39.01 -52.25c-0.74,-0.74 -1.47,-1.11 -2.58,-1.11l-2.94 0c-1.11,0 -1.47,0.37 -0.74,1.47l41.95 55.94 -43.06 57.04c-0.74,1.11 -0.74,1.84 0.37,1.84l2.94 0c1.11,0 1.84,-0.37 2.21,-1.11l40.48 -54.1 40.48 54.1c0.37,0.74 1.47,1.11 2.58,1.11l2.94 0c1.11,0 1.47,-0.74 0.37,-1.84l-43.06 -57.04 0 0zm141.68 -57.04c-0.74,0 -1.47,0.37 -1.47,0.74l-55.57 78.75 -19.87 29.07 0 0c0.37,-11.04 0.37,-21.71 0.37,-32.39l0 -75.08c0,-0.74 -0.37,-1.47 -1.47,-1.47l-2.21 0c-0.74,0 -1.47,0.37 -1.47,1.47l0 113.34c0,0.74 0.37,1.47 1.47,1.47l2.21 0c0.37,0 1.11,-0.37 1.47,-1.11l57.04 -80.96 18.4 -26.87 0.37 0c-0.37,8.83 -0.74,18.77 -0.74,29.81l0 77.65c0,0.74 0.37,1.47 1.11,1.47l2.21 0c0.74,0 1.47,-0.37 1.47,-1.47l0 -113.34c0,-0.74 -0.37,-1.47 -1.47,-1.47l-2.21 0 0.36 0.37zm22.45 0c-0.74,0 -1.47,0.37 -1.47,1.47l0 1.84c0,0.74 0.37,1.47 1.47,1.47l37.17 0 0 110.04c0,0.74 0.37,1.47 1.47,1.47l2.21 0c0.74,0 1.47,-0.37 1.47,-1.47l0 -110.04 37.17 0c0.74,0 1.47,-0.37 1.47,-1.47l0 -1.84c0,-0.74 -0.37,-1.47 -1.47,-1.47l-78.75 0 -0.73 0zm98.99 0c-0.74,0 -1.47,0.37 -1.47,1.47l0 113.34c0,0.74 0.37,1.47 1.47,1.47l69.55 0c0.74,0 1.47,-0.37 1.47,-1.47l0 -1.84c0,-0.74 -0.37,-1.47 -1.47,-1.47l-65.87 0 0 -52.25 56.67 0c0.74,0 1.47,-0.37 1.47,-1.47l0 -1.84c0,-0.74 -0.37,-1.47 -1.47,-1.47l-56.67 0 0 -50.42 63.67 0c0.74,0 1.47,-0.37 1.47,-1.47l0 -1.84c0,-0.74 -0.37,-1.47 -1.47,-1.47l-66.98 0 -0.37 0.74zm151.99 73.6c-4.79,-9.94 -12.14,-15.82 -21.34,-17.67l40.48 -54.47c0.74,-1.11 0.37,-1.47 -0.74,-1.47l-2.21 0c-1.47,0 -2.21,0.37 -2.94,1.11l-39.75 53.73c-1.11,0 -2.58,0 -4.42,0l-23.19 0 0 -53.73c0,-0.74 -0.37,-1.47 -1.47,-1.47l-2.21 0c-0.74,0 -1.47,0.37 -1.47,1.47l0 113.34c0,0.74 0.37,1.47 1.47,1.47l2.21 0c0.74,0 1.47,-0.37 1.47,-1.47l0 -55.2 23.19 0c13.99,0 20.61,4.42 26.5,16.19l19.5 39.01c0.37,0.74 1.47,1.11 2.58,1.11l1.84 0c1.11,0 1.47,-0.37 0.74,-1.47l-20.61 -40.85 0.37 0.37zm29.07 -73.6c-0.74,0 -1.47,0.37 -1.47,1.47l0 1.84c0,0.74 0.37,1.47 1.47,1.47l37.17 0 0 110.04c0,0.74 0.37,1.47 1.47,1.47l2.21 0c0.74,0 1.47,-0.37 1.47,-1.47l0 -110.04 37.17 0c0.74,0 1.47,-0.37 1.47,-1.47l0 -1.84c0,-0.74 -0.37,-1.47 -1.47,-1.47l-78.75 0 -0.73 0zm173.7 0c-1.11,0 -1.84,0.37 -2.21,1.11l-39.38 76.91 -40.85 -76.91c-0.37,-0.74 -1.11,-1.11 -2.21,-1.11l-2.21 0c-1.11,0 -1.47,0.37 -0.74,1.47l43.79 82.06 -16.19 31.28c-0.37,0.74 -0.37,1.47 0.74,1.47l2.21 0c1.11,0 1.84,-0.37 2.21,-1.11l58.15 -113.34c0.37,-0.74 0,-1.47 -0.74,-1.47l-2.21 0 -0.37 -0.37zm20.98 0c-0.74,0 -1.47,0.37 -1.47,1.47l0 113.34c0,0.74 0.37,1.47 1.47,1.47l2.21 0c0.74,0 1.47,-0.37 1.47,-1.47l0 -44.9 40.48 0c22.08,0 35.7,-12.88 35.7,-34.59 0,-22.08 -13.62,-34.96 -35.7,-34.96l-44.16 0 0 -0.37zm3.31 65.14l0 -60.72 40.11 0c19.5,0 30.91,11.41 30.91,30.54 0,18.77 -11.78,30.17 -30.91,30.17l-40.11 0zm142.79 50.78c22.08,0 35.7,-12.88 35.7,-34.96 0,-21.71 -13.62,-34.59 -35.7,-34.59l-40.48 0 0 -44.9c0,-0.74 -0.37,-1.47 -1.47,-1.47l-2.21 0c-0.74,0 -1.47,0.37 -1.47,1.47l0 113.34c0,0.74 0.37,1.47 1.47,1.47l44.16 0 0 -0.37zm57.41 -1.47c0,0.74 0.37,1.47 1.11,1.47l2.21 0c0.74,0 1.47,-0.37 1.47,-1.47l0 -113.34c0,-0.74 -0.37,-1.47 -1.47,-1.47l-2.21 0c-0.74,0 -1.11,0.37 -1.11,1.47l0 113.34zm-57.78 -64.03c19.5,0 30.91,11.41 30.91,30.17 0,19.5 -11.78,30.54 -30.91,30.54l-40.11 0 0 -60.72 40.11 0z"/>
  <polygon class="fil0 str0" points="984.69,542.46 920.28,330.12 853.31,542.46 844.11,542.46 777.13,330.12 713.1,542.46 702.05,542.46 777.13,294.79 848.89,522.59 920.65,294.79 995.36,542.46 "/>
  <path class="fil0 str0" d="M512.53 542.83l-10.3 0 0 -248.77 69.18 0c14.35,0 26.13,1.11 35.33,3.31 9.2,2.21 17.67,6.26 25.02,11.41 10.3,6.99 18.4,16.93 24.29,28.7 5.89,11.78 8.83,24.66 8.83,37.54 0,19.5 -5.89,36.8 -17.67,50.78 -9.94,12.14 -22.08,19.5 -36.43,22.45l58.15 94.21 -37.17 0 0 -10.3 18.4 0 -57.04 -92.37 8.46 -0.74c15.09,-1.11 27.23,-7.73 37.54,-19.87 10.3,-12.14 15.46,-27.23 15.46,-44.16 0,-11.41 -2.58,-22.82 -7.73,-33.12 -5.15,-10.3 -12.14,-18.4 -20.97,-24.66 -6.26,-4.42 -13.62,-7.73 -21.71,-9.57 -8.09,-2.21 -19.14,-2.94 -32.75,-2.94l-58.88 0 0 238.1 -0 0z"/>
  <path class="fil0 str0" d="M472.42 417.34c0,-16.93 -2.94,-33.12 -9.2,-47.84 -6.26,-14.72 -15.46,-28.34 -27.23,-40.11 -11.78,-11.41 -25.02,-20.24 -39.01,-26.13 -28.34,-11.41 -64.03,-11.78 -92.37,0 -13.99,5.89 -26.87,14.35 -38.64,25.76 -12.14,11.78 -21.34,25.39 -27.97,40.48 -6.26,15.09 -9.57,30.91 -9.57,47.47 0,35.33 11.78,65.14 34.96,89.43 23.19,23.92 52.25,36.07 86.48,36.07 17.67,0 34.59,-3.31 49.68,-10.3 15.46,-6.62 29.07,-16.93 41.22,-30.17 10.3,-11.41 18.4,-24.66 23.55,-38.64 5.15,-13.99 7.73,-29.81 7.73,-46.37l0.36 0.36zm-10.3 0c0,15.46 -2.58,29.81 -7.36,42.69 -4.79,12.88 -12.14,24.66 -21.71,35.33 -11.04,12.14 -23.92,21.34 -37.54,27.6 -13.99,6.26 -29.44,9.2 -45.63,9.2 -31.28,0 -57.78,-11.04 -79.12,-33.12 -21.34,-22.08 -32.02,-49.68 -32.02,-82.06 0,-15.09 2.94,-29.81 8.83,-43.42 5.89,-13.62 14.35,-26.13 25.39,-37.17 10.67,-10.3 22.45,-18.4 35.33,-23.55 12.88,-5.15 26.87,-8.09 41.58,-8.09 15.09,0 29.44,2.58 42.69,8.09 12.88,5.15 25.02,13.25 35.7,23.92 11.04,11.04 19.5,23.19 25.02,36.43 5.52,13.25 8.46,27.97 8.46,43.79l0.37 0.36z"/>
  <polygon class="fil0 str0" points="111.41,542.83 77.55,542.83 77.55,294.06 200.46,294.06 200.46,304.73 88.22,304.73 88.22,532.53 100.73,532.53 100.73,424.7 195.31,424.7 195.31,411.45 105.88,411.45 105.88,401.15 205.98,401.15 205.98,435 111.41,435 "/>
  <polygon class="fil0 str0" points="1131.89,251 1121.58,251 1121.58,36.08 1073.37,36.08 1073.37,1.86 1204.02,1.86 1204.02,30.93 1193.71,30.93 1193.71,12.16 1083.68,12.16 1083.68,25.78 1131.89,25.78 "/>
  <polygon class="fil0 str0" points="1039.52,251 1029.21,251 1029.21,12.16 1010.81,12.16 1010.81,1.86 1039.52,1.86 "/>
  <path class="fil0 str0" d="M706.84 251c-34.59,0 -63.67,-12.14 -86.85,-36.43 -23.19,-23.92 -34.96,-54.1 -34.96,-89.79 0,-16.56 3.31,-32.75 9.57,-47.84 6.26,-15.09 15.82,-28.7 27.97,-40.48 11.78,-11.78 25.02,-20.61 39.38,-26.13 14.35,-5.52 30.54,-8.46 47.84,-8.46 23.19,0 44.16,5.52 62.56,16.93 18.4,11.41 33.49,27.23 44.53,48.21l-9.2 4.79c-10.3,-19.14 -23.92,-33.86 -40.85,-44.16 -16.93,-10.3 -36.07,-15.46 -57.41,-15.46 -16.19,0 -30.91,2.58 -43.79,7.73 -12.88,5.15 -25.02,13.25 -36.07,23.92 -11.41,11.04 -19.87,23.55 -25.76,37.17 -5.89,13.62 -8.83,28.34 -8.83,43.79 0,32.75 10.67,60.35 32.02,82.43 21.34,22.08 47.84,33.12 79.49,33.12 30.54,0 57.04,-10.3 78.02,-30.91 19.87,-19.14 31.28,-43.79 34.22,-73.6l-136.9 0 0 -10.3 148.31 0 -0.37 5.52c-1.84,34.59 -14.72,63.67 -37.54,85.75 -23.19,22.45 -51.89,33.86 -85.38,33.86l0 0.35z"/>
  <polygon class="fil0 str0" points="540.87,251 530.2,251 530.2,2.23 559.64,1.86 559.64,12.16 540.87,12.53 "/>
  <path class="fil0 str0" d="M339.2 251l-10.3 0 0 -249.14 69.18 0c14.35,0 26.13,1.11 35.33,3.31 9.2,2.21 17.67,6.26 25.02,11.41 10.3,6.99 18.4,16.93 24.29,28.7 5.89,11.78 8.83,24.29 8.83,37.54 0,19.5 -5.89,36.8 -17.67,50.78 -9.94,12.14 -22.08,19.5 -36.43,22.45l58.15 94.21 -37.17 0 0 -10.3 18.4 0 -57.04 -92.37 8.46 -0.74c15.09,-1.11 27.23,-7.73 37.54,-19.87 10.3,-12.14 15.09,-27.23 15.09,-44.16 0,-11.78 -2.58,-22.82 -7.73,-33.12 -5.15,-10.3 -12.14,-18.77 -20.97,-24.66 -6.26,-4.42 -13.62,-7.73 -21.71,-9.94 -8.09,-1.84 -19.14,-2.94 -32.75,-2.94l-58.88 0 0 238.84 0.37 0z"/>
  <polygon class="fil0 str0" points="902.99,250.63 869.13,250.63 869.13,1.86 879.44,1.86 879.44,239.96 892.68,239.96 892.68,131.4 1010.81,131.4 1010.81,141.7 902.99,141.7 "/>
  <polygon class="fil0 str0" points="286.95,1.86 222.54,215.67 154.83,1.86 145.63,1.86 78.28,215.67 13.51,1.86 2.48,1.86 77.92,251.37 150.41,21.73 222.54,251.37 297.98,1.86 "/>
 </g>
</svg>
