<?xml version="1.0" encoding="UTF-8"?>
<!DOCTYPE svg PUBLIC "-//W3C//DTD SVG 1.1//EN" "http://www.w3.org/Graphics/SVG/1.1/DTD/svg11.dtd">
<!-- Creator: CorelDRAW 2017 -->
<svg xmlns="http://www.w3.org/2000/svg" xml:space="preserve" width="753px" height="138px" version="1.1" style="shape-rendering:geometricPrecision; text-rendering:geometricPrecision; image-rendering:optimizeQuality; fill-rule:evenodd; clip-rule:evenodd"
viewBox="0 0 1226.45 224.86"
 xmlns:xlink="http://www.w3.org/1999/xlink">
 <defs>
  <style type="text/css">
   <![CDATA[
    .str0 {stroke:#2e2e2e;stroke-width:1.47;stroke-miterlimit:10}
    .fil0 {fill:#2e2e2e;fill-rule:nonzero}
   ]]>
  </style>
 </defs>
 <g id="Слой_x0020_1">
  <metadata id="CorelCorpID_0Corel-Layer"/>
  <path class="fil0 str0" d="M643.55 85.96c0,10.38 6.44,16.55 18.04,16.55 10.58,0 15.6,-4.07 17.84,-12.28 0.07,-0.4 0,-0.68 -0.34,-0.74l-0.81 -0.28c-0.34,-0.13 -0.55,0 -0.68,0.34 -2.24,7.6 -6.58,11.13 -16.01,11.13 -10.31,0 -16.01,-5.5 -16.01,-14.65l0 -17.17c0,-9.15 5.49,-14.58 16.01,-14.58 9.22,0 13.57,3.32 15.8,10.72 0.14,0.34 0.41,0.47 0.75,0.34l0.75 -0.27c0.4,-0.07 0.54,-0.28 0.4,-0.68 -2.37,-8.07 -7.39,-11.94 -17.7,-11.94 -11.67,0 -18.04,6.17 -18.04,16.48l0 17.03zm40.76 -32.56c-0.34,0 -0.54,0.2 -0.54,0.54l0 0.75c0,0.34 0.2,0.54 0.54,0.54l15.4 0 0 45.79c0,0.34 0.2,0.54 0.54,0.54l0.88 0c0.34,0 0.55,-0.2 0.55,-0.54l0 -45.79 15.39 0c0.34,0 0.55,-0.2 0.55,-0.54l0 -0.75c0,-0.34 -0.21,-0.54 -0.55,-0.54l-32.76 0zm72.24 0c-0.47,0 -0.81,0.13 -0.95,0.47l-16.41 32.02 -17.03 -32.02c-0.2,-0.34 -0.47,-0.47 -0.95,-0.47l-0.95 0c-0.41,0 -0.54,0.2 -0.34,0.54l18.18 34.12 -6.71 12.96c-0.21,0.34 -0.14,0.54 0.33,0.54l0.95 0c0.48,0 0.75,-0.14 0.95,-0.47l24.15 -47.15c0.21,-0.34 0.07,-0.54 -0.27,-0.54l-0.95 0zm11.53 0c-0.34,0 -0.54,0.2 -0.54,0.54l0 13.64c0,12.21 -0.88,20.69 -2.65,25.03 -0.88,2.17 -1.69,3.73 -2.37,4.61 -0.68,0.88 -1.56,1.76 -2.65,2.51l-3.11 0c-0.35,0 -0.55,0.2 -0.55,0.54l0 11.13c0,0.34 0.2,0.54 0.55,0.54l0.88 0c0.34,0 0.54,-0.2 0.54,-0.54l0 -9.84 40.56 0 0 9.84c0,0.34 0.21,0.54 0.55,0.54l0.88 0c0.34,0 0.54,-0.2 0.54,-0.54l0 -11.13c0,-0.34 -0.2,-0.54 -0.54,-0.54l-4.89 0 0 -45.79c0,-0.34 -0.2,-0.54 -0.54,-0.54l-26.66 0zm25.24 1.83l0 44.5 -30.8 0c1.29,-1.15 2.37,-2.51 3.26,-4.14 1.76,-3.26 3.66,-13.16 3.66,-28.01l0 -12.35 23.88 0zm49.11 -1.83c-0.34,0 -0.55,0.13 -0.62,0.34l-23.06 32.69 -8.27 12.15 -0.07 0c0.13,-4.62 0.2,-9.09 0.2,-13.5l0 -31.14c0,-0.34 -0.2,-0.54 -0.54,-0.54l-0.88 0c-0.34,0 -0.54,0.2 -0.54,0.54l0 47.08c0,0.34 0.2,0.54 0.54,0.54l0.88 0c0.2,0 0.47,-0.14 0.68,-0.41l23.67 -33.64 7.6 -11.13 0.13 0c-0.2,3.73 -0.27,7.87 -0.27,12.42l0 32.22c0,0.34 0.14,0.54 0.48,0.54l0.95 0c0.34,0 0.54,-0.2 0.54,-0.54l0 -47.08c0,-0.34 -0.2,-0.54 -0.54,-0.54l-0.88 0zm12 13.29c0,7.8 4.34,12.42 11.94,12.96 -2.38,0.88 -4.28,2.92 -5.77,6.1l-7.26 15.2c-0.2,0.41 -0.13,0.61 0.34,0.61l0.82 0c0.47,0 0.81,-0.14 1.01,-0.47l6.92 -14.45c2.24,-4.89 5.16,-6.79 10.92,-6.79l12.76 0 0 21.17c0,0.34 0.2,0.54 0.54,0.54l0.88 0c0.34,0 0.54,-0.2 0.54,-0.54l0 -47.08c0,-0.34 -0.2,-0.54 -0.54,-0.54l-19.6 0c-8.48,0 -13.5,4.88 -13.5,13.29zm31.68 -11.46l0 22.72 -18.05 0c-7.32,0 -11.6,-4 -11.6,-11.26 0,-7.32 4.28,-11.46 11.6,-11.46l18.05 0zm37.3 -1.83c-0.34,0 -0.54,0.2 -0.54,0.54l0 13.64c0,12.21 -0.88,20.69 -2.64,25.03 -0.89,2.17 -1.7,3.73 -2.38,4.61 -0.68,0.88 -1.56,1.76 -2.65,2.51l-3.11 0c-0.34,0 -0.55,0.2 -0.55,0.54l0 11.13c0,0.34 0.21,0.54 0.55,0.54l0.88 0c0.34,0 0.54,-0.2 0.54,-0.54l0 -9.84 40.56 0 0 9.84c0,0.34 0.21,0.54 0.55,0.54l0.88 0c0.34,0 0.54,-0.2 0.54,-0.54l0 -11.13c0,-0.34 -0.2,-0.54 -0.54,-0.54l-4.89 0 0 -45.79c0,-0.34 -0.2,-0.54 -0.54,-0.54l-26.66 0zm25.24 1.83l0 44.5 -30.8 0c1.29,-1.15 2.38,-2.51 3.26,-4.14 1.76,-3.26 3.66,-13.16 3.66,-28.01l0 -12.35 23.88 0zm49.11 -1.83c-0.34,0 -0.55,0.13 -0.62,0.34l-23.06 32.69 -8.27 12.15 -0.07 0c0.13,-4.62 0.2,-9.09 0.2,-13.5l0 -31.14c0,-0.34 -0.2,-0.54 -0.54,-0.54l-0.88 0c-0.34,0 -0.54,0.2 -0.54,0.54l0 47.08c0,0.34 0.2,0.54 0.54,0.54l0.88 0c0.2,0 0.47,-0.14 0.68,-0.41l23.67 -33.64 7.6 -11.13 0.13 0c-0.2,3.73 -0.27,7.87 -0.27,12.42l0 32.22c0,0.34 0.14,0.54 0.48,0.54l0.95 0c0.34,0 0.54,-0.2 0.54,-0.54l0 -47.08c0,-0.34 -0.2,-0.54 -0.54,-0.54l-0.88 0zm44.36 12.34c0,-8.47 -5.23,-13.29 -15.2,-13.29 -10.51,0 -15.6,3.8 -17.84,11.87 -0.13,0.34 0,0.61 0.34,0.75l0.82 0.2c0.34,0.14 0.54,0 0.68,-0.34 2.23,-7.53 6.51,-10.65 15.94,-10.65 8.75,0 13.43,4.14 13.43,11.53 0,5.7 -3.19,10.11 -9.5,10.11l-13.29 0c-0.34,0 -0.55,0.2 -0.55,0.54l0 0.75c0,0.34 0.21,0.54 0.55,0.54l13.43 0c6.78,0 10.64,4.27 10.64,10.85 0,7.67 -4.88,12.08 -14.71,12.08 -9.7,0 -14.11,-3.46 -16.35,-11.06 -0.14,-0.34 -0.34,-0.47 -0.68,-0.34l-0.81 0.27c-0.34,0.07 -0.41,0.34 -0.34,0.75 2.24,8.21 7.39,12.21 18.18,12.21 11.19,0 16.75,-5.09 16.75,-13.84 0,-6.04 -2.78,-10.45 -8.21,-12 4.55,-1.43 6.72,-5.77 6.72,-10.93zm27.13 -12.21c-0.14,-0.33 -0.41,-0.47 -0.82,-0.47l-0.81 0c-0.34,0 -0.61,0.2 -0.75,0.54l-19.19 47.42c-0.14,0.34 0,0.54 0.41,0.54l0.67 0c0.55,0 0.89,-0.14 1.02,-0.47l6.58 -16.35 23.34 0 6.58 16.35c0.13,0.33 0.47,0.47 0.94,0.47l0.82 0c0.4,0 0.54,-0.2 0.4,-0.54l-19.19 -47.49zm9.83 29.51l-22.11 0 10.58 -26.11c0.14,-0.34 0.27,-0.95 0.41,-1.83l0.07 0c0.07,0.61 0.27,1.22 0.47,1.83l10.58 26.11zm44.84 -41.31c0.14,-0.2 0.07,-0.41 -0.27,-0.47l-0.81 -0.27c-0.21,-0.07 -0.41,0.06 -0.55,0.27 -1.22,4.27 -4.2,6.44 -8.88,6.44 -4.89,0 -7.6,-2.03 -8.89,-6.44 -0.13,-0.21 -0.34,-0.34 -0.61,-0.27l-0.74 0.27c-0.34,0.06 -0.41,0.27 -0.28,0.47 1.43,5.16 4.75,7.46 10.52,7.46 5.56,0 9.09,-2.51 10.51,-7.46zm5.43 11.67c-0.34,0 -0.54,0.13 -0.61,0.34l-23.07 32.69 -8.27 12.15 -0.07 0c0.14,-4.62 0.21,-9.09 0.21,-13.5l0 -31.14c0,-0.34 -0.21,-0.54 -0.55,-0.54l-0.88 0c-0.34,0 -0.54,0.2 -0.54,0.54l0 47.08c0,0.34 0.2,0.54 0.54,0.54l0.88 0c0.21,0 0.48,-0.14 0.68,-0.41l23.67 -33.64 7.6 -11.13 0.14 0c-0.21,3.73 -0.27,7.87 -0.27,12.42l0 32.22c0,0.34 0.13,0.54 0.47,0.54l0.95 0c0.34,0 0.54,-0.2 0.54,-0.54l0 -47.08c0,-0.34 -0.2,-0.54 -0.54,-0.54l-0.88 0zm46.6 0c-0.34,0 -0.55,0.2 -0.55,0.54l0 22.25 -30.45 0 0 -22.25c0,-0.34 -0.2,-0.54 -0.54,-0.54l-0.89 0c-0.34,0 -0.54,0.2 -0.54,0.54l0 47.08c0,0.34 0.2,0.54 0.54,0.54l0.89 0c0.34,0 0.54,-0.2 0.54,-0.54l0 -22.93 30.45 0 0 22.93c0,0.34 0.21,0.54 0.55,0.54l0.95 0c0.34,0 0.54,-0.2 0.54,-0.54l0 -47.08c0,-0.34 -0.2,-0.54 -0.54,-0.54l-0.95 0zm30.52 0.13c-0.14,-0.33 -0.41,-0.47 -0.81,-0.47l-0.82 0c-0.34,0 -0.61,0.2 -0.74,0.54l-19.2 47.42c-0.14,0.34 0,0.54 0.41,0.54l0.68 0c0.54,0 0.88,-0.14 1.01,-0.47l6.58 -16.35 23.34 0 6.58 16.35c0.13,0.33 0.47,0.47 0.95,0.47l0.81 0c0.41,0 0.54,-0.2 0.41,-0.54l-19.2 -47.49zm9.84 29.51l-22.12 0 10.59 -26.11c0.13,-0.34 0.27,-0.95 0.4,-1.83l0.07 0c0.07,0.61 0.27,1.22 0.48,1.83l10.58 26.11z"/>
  <path class="fil0 str0" d="M646.19 144.91c0,1.69 0.41,3.32 1.22,4.95 1.63,3.32 3.12,4.95 6.04,7.73 -3.53,1.56 -5.49,2.71 -7.87,4.88 -2.44,2.17 -3.59,5.23 -3.59,9.09 0,3.46 1.22,6.38 3.66,8.75 2.37,2.38 5.29,3.6 8.68,3.6 2.78,0 5.43,-0.54 7.87,-1.7 2.37,-1.15 5.56,-3.46 9.56,-7.05l7.74 7.39c0.27,0.27 0.61,0.41 0.95,0.41l1.15 0c0.54,0 0.61,-0.2 0.27,-0.54l-8.82 -8.48 5.09 -4.82c0.2,-0.2 0.2,-0.47 0,-0.68l-0.54 -0.61c-0.27,-0.2 -0.54,-0.2 -0.75,0l-5.09 4.82 -15.32 -14.52 0.67 -0.34c4.41,-1.83 7.6,-3.59 9.43,-5.42 1.83,-1.83 2.78,-4.34 2.78,-7.53 0,-2.99 -1.08,-5.56 -3.25,-7.74 -2.24,-2.17 -4.95,-3.25 -8.28,-3.25 -3.39,0 -6.17,1.08 -8.34,3.25 -2.17,2.24 -3.26,4.82 -3.26,7.81zm21.3 -0.07c0.41,3.25 -1.63,5.83 -3.12,7.26 -0.47,0.47 -1.29,0.94 -2.44,1.56 -1.15,0.61 -2.04,1.08 -2.51,1.28 -0.54,0.21 -1.56,0.68 -3.12,1.36l-1.09 0.48c-1.56,-1.43 -2.71,-2.65 -3.52,-3.53 -1.63,-1.76 -3.6,-5.16 -3.6,-8.34 0,-2.51 0.88,-4.75 2.72,-6.58 1.83,-1.83 4.13,-2.78 6.98,-2.78 2.78,0 5.16,0.95 6.99,2.78 1.83,1.83 2.71,4 2.71,6.51zm2.99 29.03c-3.73,3.32 -6.72,5.56 -8.96,6.65 -2.24,1.08 -4.61,1.63 -7.12,1.63 -2.92,0 -5.36,-1.02 -7.39,-3.06 -2.11,-2.03 -3.12,-4.54 -3.12,-7.46 0,-6.71 3.59,-9.77 10.85,-12.75l15.74 14.99zm51.96 -38.94c-0.14,-0.33 -0.41,-0.47 -0.82,-0.47l-0.81 0c-0.34,0 -0.61,0.2 -0.75,0.54l-19.2 47.42c-0.13,0.34 0,0.54 0.41,0.54l0.68 0c0.54,0 0.88,-0.14 1.02,-0.48l6.58 -16.34 23.33 0 6.58 16.34c0.14,0.34 0.47,0.48 0.95,0.48l0.81 0c0.41,0 0.55,-0.2 0.41,-0.54l-19.19 -47.49zm9.83 29.51l-22.11 0 10.58 -26.11c0.13,-0.34 0.27,-0.95 0.41,-1.83l0.06 0c0.07,0.6 0.28,1.22 0.48,1.83l10.58 26.11zm17.03 -29.64c-0.34,0 -0.55,0.2 -0.55,0.54l0 47.08c0,0.34 0.21,0.54 0.55,0.54l0.88 0c0.34,0 0.54,-0.2 0.54,-0.54l0 -18.66 16.89 0c9.16,0 14.79,-5.42 14.79,-14.38 0,-9.15 -5.63,-14.58 -14.79,-14.58l-18.31 0zm1.42 27.13l0 -25.3 16.69 0c8.07,0 12.89,4.68 12.89,12.75 0,7.87 -4.82,12.55 -12.89,12.55l-16.69 0zm55.42 -3.39l17.43 -23.2c0.27,-0.34 0.14,-0.54 -0.34,-0.54l-1.08 0c-0.41,0 -0.75,0.13 -1.02,0.47l-16.28 21.64 -16.28 -21.64c-0.27,-0.34 -0.61,-0.47 -1.02,-0.47l-1.15 0c-0.47,0 -0.54,0.2 -0.27,0.54l17.43 23.2 -17.91 23.67c-0.34,0.48 -0.27,0.75 0.21,0.75l1.15 0c0.41,0 0.75,-0.14 0.95,-0.48l16.82 -22.45 16.89 22.45c0.21,0.34 0.54,0.48 1.02,0.48l1.15 0c0.48,0 0.55,-0.27 0.21,-0.75l-17.91 -23.67zm58.81 -23.74c-0.34,0 -0.54,0.13 -0.61,0.34l-23.06 32.69 -8.28 12.15 -0.07 0c0.14,-4.62 0.21,-9.09 0.21,-13.5l0 -31.14c0,-0.34 -0.21,-0.54 -0.55,-0.54l-0.88 0c-0.34,0 -0.54,0.2 -0.54,0.54l0 47.08c0,0.34 0.2,0.54 0.54,0.54l0.88 0c0.21,0 0.48,-0.14 0.68,-0.41l23.67 -33.64 7.6 -11.13 0.14 0c-0.21,3.73 -0.27,7.87 -0.27,12.42l0 32.22c0,0.34 0.13,0.54 0.47,0.54l0.95 0c0.34,0 0.54,-0.2 0.54,-0.54l0 -47.08c0,-0.34 -0.2,-0.54 -0.54,-0.54l-0.88 0zm9.29 0c-0.34,0 -0.54,0.2 -0.54,0.54l0 0.75c0,0.34 0.2,0.54 0.54,0.54l15.4 0 0 45.79c0,0.34 0.2,0.54 0.54,0.54l0.88 0c0.34,0 0.54,-0.2 0.54,-0.54l0 -45.79 15.4 0c0.34,0 0.54,-0.2 0.54,-0.54l0 -0.75c0,-0.34 -0.2,-0.54 -0.54,-0.54l-32.76 0zm41.17 0c-0.34,0 -0.54,0.2 -0.54,0.54l0 47.08c0,0.34 0.2,0.54 0.54,0.54l28.83 0c0.34,0 0.54,-0.2 0.54,-0.54l0 -0.75c0,-0.34 -0.2,-0.54 -0.54,-0.54l-27.4 0 0 -21.64 23.53 0c0.34,0 0.55,-0.2 0.55,-0.54l0 -0.82c0,-0.34 -0.21,-0.54 -0.55,-0.54l-23.53 0 0 -20.96 26.45 0c0.34,0 0.54,-0.2 0.54,-0.54l0 -0.75c0,-0.34 -0.2,-0.54 -0.54,-0.54l-27.88 0zm63.15 30.59c-2.03,-4.14 -5.02,-6.65 -8.88,-7.39l16.75 -22.59c0.34,-0.41 0.2,-0.61 -0.34,-0.61l-0.88 0c-0.54,0 -0.95,0.13 -1.15,0.47l-16.49 22.39c-0.4,-0.07 -1.01,-0.07 -1.9,-0.07l-9.63 0 0 -22.25c0,-0.34 -0.2,-0.54 -0.54,-0.54l-0.88 0c-0.34,0 -0.54,0.2 -0.54,0.54l0 47.08c0,0.34 0.2,0.54 0.54,0.54l0.88 0c0.34,0 0.54,-0.2 0.54,-0.54l0 -22.93 9.7 0c5.77,0 8.62,1.9 11.06,6.78l8.14 16.21c0.2,0.34 0.54,0.48 1.08,0.48l0.82 0c0.47,0 0.61,-0.2 0.27,-0.61l-8.55 -16.96zm12.14 -30.59c-0.34,0 -0.54,0.2 -0.54,0.54l0 0.75c0,0.34 0.2,0.54 0.54,0.54l15.4 0 0 45.79c0,0.34 0.2,0.54 0.54,0.54l0.89 0c0.33,0 0.54,-0.2 0.54,-0.54l0 -45.79 15.4 0c0.33,0 0.54,-0.2 0.54,-0.54l0 -0.75c0,-0.34 -0.21,-0.54 -0.54,-0.54l-32.77 0zm72.24 0c-0.47,0 -0.81,0.13 -0.95,0.47l-16.41 32.02 -17.03 -32.02c-0.2,-0.34 -0.47,-0.47 -0.95,-0.47l-0.95 0c-0.4,0 -0.54,0.2 -0.34,0.54l18.18 34.12 -6.71 12.96c-0.21,0.34 -0.14,0.54 0.34,0.54l0.95 0c0.47,0 0.74,-0.14 0.95,-0.48l24.14 -47.14c0.21,-0.34 0.07,-0.54 -0.27,-0.54l-0.95 0zm8.68 0c-0.34,0 -0.54,0.2 -0.54,0.54l0 47.08c0,0.34 0.2,0.54 0.54,0.54l0.88 0c0.34,0 0.55,-0.2 0.55,-0.54l0 -18.66 16.89 0c9.15,0 14.78,-5.42 14.78,-14.38 0,-9.15 -5.63,-14.58 -14.78,-14.58l-18.32 0zm1.43 27.13l0 -25.3 16.68 0c8.08,0 12.89,4.68 12.89,12.75 0,7.87 -4.81,12.55 -12.89,12.55l-16.68 0zm59.28 21.03c9.16,0 14.79,-5.43 14.79,-14.58 0,-8.96 -5.63,-14.39 -14.79,-14.39l-16.89 0 0 -18.65c0,-0.34 -0.2,-0.54 -0.54,-0.54l-0.88 0c-0.34,0 -0.54,0.2 -0.54,0.54l0 47.08c0,0.34 0.2,0.54 0.54,0.54l18.31 0zm23.81 -0.54c0,0.34 0.14,0.54 0.48,0.54l0.95 0c0.34,0 0.54,-0.2 0.54,-0.54l0 -47.08c0,-0.34 -0.2,-0.54 -0.54,-0.54l-0.95 0c-0.34,0 -0.48,0.2 -0.48,0.54l0 47.08zm-24.01 -26.59c8.07,0 12.89,4.68 12.89,12.55 0,8.07 -4.82,12.75 -12.89,12.75l-16.69 0 0 -25.3 16.69 0z"/>
  <polygon class="fil0" points="407.97,224.73 381.3,136.44 353.48,224.73 349.63,224.73 321.81,136.44 295.14,224.73 290.62,224.73 321.72,121.79 351.55,216.47 381.38,121.79 412.49,224.73 "/>
  <path class="fil0" d="M211.8 224.86l-4.34 0 0 -103.33 28.74 0c5.99,0 10.92,0.47 14.63,1.4 3.81,0.94 7.31,2.52 10.42,4.71 4.22,2.96 7.59,6.96 10.03,11.89 2.43,4.91 3.67,10.17 3.67,15.64 0,8.14 -2.47,15.26 -7.34,21.17 -4.13,5.02 -9.22,8.16 -15.16,9.35l24.22 39.15 -15.45 0 0 -4.35 7.65 0 -23.76 -38.41 3.58 -0.26c6.28,-0.46 11.37,-3.16 15.56,-8.25 4.21,-5.11 6.35,-11.3 6.35,-18.4 0,-4.79 -1.08,-9.41 -3.21,-13.71 -2.11,-4.27 -5.03,-7.72 -8.65,-10.27 -2.65,-1.87 -5.67,-3.23 -8.96,-4.05 -3.37,-0.84 -7.94,-1.26 -13.58,-1.26l-24.4 0 0 98.98z"/>
  <path class="fil0" d="M195.25 172.68c0,-7.04 -1.29,-13.71 -3.82,-19.82 -2.54,-6.12 -6.37,-11.72 -11.39,-16.64 -4.88,-4.79 -10.35,-8.44 -16.25,-10.87 -11.72,-4.8 -26.55,-4.88 -38.33,-0.03 -5.82,2.41 -11.22,6.03 -16.06,10.77 -5,4.92 -8.89,10.58 -11.54,16.82 -2.65,6.24 -3.99,12.9 -3.99,19.77 0,14.66 4.89,27.14 14.51,37.1 9.65,10 21.75,15.06 35.95,15.06 7.4,0 14.37,-1.43 20.71,-4.24 6.36,-2.81 12.12,-7.02 17.12,-12.53 4.34,-4.79 7.65,-10.21 9.82,-16.07 2.17,-5.86 3.27,-12.36 3.27,-19.32zm-4.35 0c0,6.44 -1.01,12.43 -3,17.81 -1.98,5.35 -5,10.28 -8.96,14.65 -4.6,5.06 -9.86,8.92 -15.65,11.49 -5.79,2.55 -12.17,3.86 -18.96,3.86 -12.98,0 -24.02,-4.62 -32.82,-13.73 -8.82,-9.13 -13.28,-20.59 -13.28,-34.08 0,-6.28 1.22,-12.37 3.63,-18.07 2.44,-5.71 5.99,-10.9 10.59,-15.42 4.43,-4.35 9.37,-7.66 14.67,-9.85 5.3,-2.18 11.14,-3.3 17.35,-3.3 6.33,0 12.27,1.13 17.66,3.34 5.39,2.2 10.39,5.55 14.87,9.95 4.59,4.51 8.1,9.62 10.41,15.2 2.32,5.57 3.49,11.69 3.49,18.15z"/>
  <polygon class="fil0" points="45.13,224.84 31.19,224.84 31.19,121.53 82.23,121.53 82.23,125.88 35.54,125.88 35.54,220.49 40.77,220.49 40.77,175.7 80.05,175.7 80.05,170.27 42.95,170.27 42.95,165.91 84.4,165.91 84.4,180.05 45.13,180.05 "/>
  <polygon class="fil0" points="469.2,103.61 464.85,103.61 464.85,14.36 444.79,14.36 444.79,0.05 499.13,0.05 499.13,12.18 494.78,12.18 494.78,4.4 449.14,4.4 449.14,10.01 469.2,10.01 "/>
  <polygon class="fil0" points="430.82,103.61 426.47,103.61 426.47,4.4 418.92,4.4 418.92,0.05 430.82,0.05 "/>
  <path class="fil0" d="M292.55 103.61c-14.32,0 -26.48,-5.07 -36.13,-15.08 -9.65,-9.97 -14.55,-22.52 -14.55,-37.28 0,-6.95 1.35,-13.62 3.98,-19.86 2.64,-6.22 6.55,-11.91 11.62,-16.89 4.92,-4.86 10.42,-8.52 16.38,-10.89 5.95,-2.35 12.64,-3.56 19.87,-3.56 9.63,0 18.4,2.37 26.07,7.04 7.66,4.67 13.89,11.39 18.5,20l-3.83 2.05c-4.24,-7.91 -9.94,-14.08 -16.94,-18.33 -6.97,-4.26 -14.98,-6.41 -23.8,-6.41 -6.68,0 -12.82,1.1 -18.26,3.26 -5.41,2.14 -10.44,5.49 -14.94,9.94 -4.67,4.59 -8.25,9.79 -10.66,15.49 -2.41,5.69 -3.63,11.8 -3.63,18.16 0,13.59 4.48,25.12 13.31,34.26 8.81,9.13 19.91,13.76 33.01,13.76 12.76,0 23.67,-4.31 32.42,-12.79 8.26,-8.01 13.02,-18.26 14.17,-30.51l-56.95 0 0 -4.34 61.6 0 -0.13 2.29c-0.82,14.39 -6.08,26.4 -15.67,35.68 -9.59,9.3 -21.51,14.01 -35.44,14.01z"/>
  <polygon class="fil0" points="223.59,103.61 219.24,103.61 219.24,0.21 231.38,0.05 231.44,4.4 223.59,4.51 "/>
  <path class="fil0" d="M139.85 103.61l-4.36 0 0 -103.56 28.76 0c5.99,0 10.92,0.47 14.62,1.4 3.81,0.94 7.31,2.52 10.41,4.71 4.23,2.96 7.61,6.96 10.04,11.89 2.44,4.89 3.67,10.16 3.67,15.65 0,8.13 -2.47,15.25 -7.34,21.16 -4.13,5.02 -9.22,8.16 -15.16,9.36l24.22 39.14 -15.45 0 0 -4.35 7.65 0 -23.76 -38.4 3.58 -0.27c6.28,-0.45 11.37,-3.15 15.57,-8.25 4.21,-5.1 6.34,-11.29 6.34,-18.39 0,-4.82 -1.08,-9.43 -3.21,-13.72 -2.11,-4.27 -5.02,-7.72 -8.64,-10.26 -2.67,-1.88 -5.68,-3.23 -8.97,-4.06 -3.36,-0.83 -7.93,-1.26 -13.57,-1.26l-24.4 0 0 99.21z"/>
  <polygon class="fil0" points="374.07,103.36 359.93,103.36 359.93,0.05 364.28,0.05 364.28,99.01 369.72,99.01 369.72,53.88 418.92,53.88 418.92,58.23 374.07,58.23 "/>
  <polygon class="fil0" points="118.16,0 91.31,88.91 63.29,0 59.41,0 31.4,88.91 4.54,0 0,0 31.32,103.66 61.35,8.32 91.39,103.66 122.71,0 "/>
 </g>
</svg>
