<?xml version="1.0" encoding="utf-8"?>
<!-- Generator: Adobe Illustrator 22.0.1, SVG Export Plug-In . SVG Version: 6.00 Build 0)  -->
<svg version="1.1" id="Слой_1" xmlns="http://www.w3.org/2000/svg" xmlns:xlink="http://www.w3.org/1999/xlink" x="0px" y="0px"
	 viewBox="0 0 96.5 171" enable-background="new 0 0 96.5 171" xml:space="preserve">
<path fill="#FFFFFF" d="M23.2,53.4L61,106.3V56.8l33.8-25.7V3.2L23.2,53.4z M62.7,57.6v50.2l13.2-8.2V59l18.9-14.6V33.2L62.7,57.6z
	 M77.6,100.2l7.7,9.3l9.5-6.2V46.6L77.6,59.8V100.2z M22.9,55.9v94.7l61-40.2l-7.5-9.1l-14.6,9L22.9,55.9z M21.2,153.7v-101L96.5,0
	v104.2l-0.4,0.2L21.2,153.7z M3.6,108.7h6.9l4.6-2.7v-5.6L3.6,108.7z M11.5,110v50.6l3.6-2.6v-50.1L11.5,110z M1.7,110.3v57.4
	l8.1-5.9v-51.5H1.7z M0,171v-61.8l16.7-12v61.7L0,171z"/>
</svg>
