<?xml version="1.0" encoding="UTF-8"?>
<!DOCTYPE svg PUBLIC "-//W3C//DTD SVG 1.1//EN" "http://www.w3.org/Graphics/SVG/1.1/DTD/svg11.dtd">
<!-- Creator: CorelDRAW 2017 -->
<svg xmlns="http://www.w3.org/2000/svg" xml:space="preserve" width="63px" height="64px" version="1.1" style="shape-rendering:geometricPrecision; text-rendering:geometricPrecision; image-rendering:optimizeQuality; fill-rule:evenodd; clip-rule:evenodd"
viewBox="0 0 23.85 24.23"
 xmlns:xlink="http://www.w3.org/1999/xlink">
 <defs>
  <style type="text/css">
   <![CDATA[
    .fil0 {fill:white;fill-rule:nonzero}
   ]]>
  </style>
 </defs>
 <g id="Слой_x0020_1">
  <metadata id="CorelCorpID_0Corel-Layer"/>
  <path class="fil0" d="M11.86 24.23c-3.35,0 -6.2,-1.19 -8.46,-3.53 -2.25,-2.33 -3.4,-5.27 -3.4,-8.72 0,-1.63 0.31,-3.19 0.93,-4.65 0.62,-1.45 1.53,-2.78 2.72,-3.95 1.15,-1.14 2.44,-1.99 3.83,-2.55 1.4,-0.55 2.96,-0.83 4.65,-0.83 2.25,0 4.31,0.55 6.1,1.65 1.79,1.09 3.25,2.66 4.33,4.68l-0.9 0.48c-0.99,-1.85 -2.32,-3.3 -3.96,-4.29 -1.63,-1 -3.5,-1.5 -5.57,-1.5 -1.56,0 -3,0.25 -4.27,0.76 -1.27,0.5 -2.44,1.28 -3.5,2.33 -1.09,1.07 -1.93,2.29 -2.49,3.62 -0.57,1.33 -0.85,2.76 -0.85,4.25 0,3.18 1.05,5.88 3.11,8.01 2.06,2.14 4.66,3.22 7.73,3.22 2.98,0 5.54,-1 7.58,-2.99 1.94,-1.87 3.05,-4.27 3.32,-7.14l-13.33 0 0 -1.01 14.42 0 -0.03 0.53c-0.2,3.37 -1.43,6.18 -3.67,8.35 -2.24,2.18 -5.03,3.28 -8.29,3.28z"/>
 </g>
</svg>
