<?xml version="1.0" encoding="UTF-8"?>
<!DOCTYPE svg PUBLIC "-//W3C//DTD SVG 1.1//EN" "http://www.w3.org/Graphics/SVG/1.1/DTD/svg11.dtd">
<!-- Creator: CorelDRAW 2017 -->
<svg xmlns="http://www.w3.org/2000/svg" xml:space="preserve" width="62px" height="63px" version="1.1" style="shape-rendering:geometricPrecision; text-rendering:geometricPrecision; image-rendering:optimizeQuality; fill-rule:evenodd; clip-rule:evenodd"
viewBox="0 0 11.12 11.31"
 xmlns:xlink="http://www.w3.org/1999/xlink">
 <defs>
  <style type="text/css">
   <![CDATA[
    .fil0 {fill:white;fill-rule:nonzero}
   ]]>
  </style>
 </defs>
 <g id="Слой_x0020_1">
  <metadata id="CorelCorpID_0Corel-Layer"/>
  <path class="fil0" d="M11.12 5.59c0,-0.77 -0.14,-1.5 -0.42,-2.17 -0.28,-0.67 -0.7,-1.29 -1.25,-1.83 -0.53,-0.52 -1.13,-0.93 -1.78,-1.19 -1.29,-0.53 -2.91,-0.54 -4.21,0 -0.63,0.26 -1.23,0.66 -1.76,1.18 -0.55,0.54 -0.97,1.16 -1.26,1.84 -0.29,0.69 -0.44,1.42 -0.44,2.17 0,1.61 0.54,2.98 1.59,4.07 1.06,1.1 2.39,1.65 3.94,1.65 0.82,0 1.58,-0.16 2.28,-0.46 0.69,-0.31 1.32,-0.77 1.87,-1.38 0.48,-0.52 0.84,-1.12 1.08,-1.76 0.24,-0.64 0.36,-1.36 0.36,-2.12zm-0.48 0c0,0.71 -0.11,1.36 -0.33,1.95 -0.21,0.59 -0.54,1.13 -0.98,1.61 -0.5,0.56 -1.08,0.98 -1.72,1.26 -0.63,0.28 -1.33,0.42 -2.08,0.42 -1.42,0 -2.63,-0.5 -3.6,-1.5 -0.96,-1 -1.45,-2.26 -1.45,-3.74 0,-0.69 0.13,-1.36 0.4,-1.98 0.26,-0.63 0.65,-1.2 1.16,-1.69 0.48,-0.48 1.03,-0.84 1.61,-1.08 0.58,-0.24 1.22,-0.37 1.9,-0.37 0.69,0 1.35,0.13 1.94,0.37 0.59,0.24 1.14,0.61 1.63,1.09 0.5,0.5 0.89,1.06 1.14,1.67 0.25,0.61 0.38,1.28 0.38,1.99z"/>
 </g>
</svg>
