<?xml version="1.0" encoding="UTF-8"?>
<!DOCTYPE svg PUBLIC "-//W3C//DTD SVG 1.1//EN" "http://www.w3.org/Graphics/SVG/1.1/DTD/svg11.dtd">
<!-- Creator: CorelDRAW 2017 -->
<svg xmlns="http://www.w3.org/2000/svg" xml:space="preserve" width="43px" height="64px" version="1.1" style="shape-rendering:geometricPrecision; text-rendering:geometricPrecision; image-rendering:optimizeQuality; fill-rule:evenodd; clip-rule:evenodd"
viewBox="0 0 6.17 9.24"
 xmlns:xlink="http://www.w3.org/1999/xlink">
 <defs>
  <style type="text/css">
   <![CDATA[
    .fil0 {fill:white;fill-rule:nonzero}
   ]]>
  </style>
 </defs>
 <g id="Слой_x0020_1">
  <metadata id="CorelCorpID_0Corel-Layer"/>
  <path class="fil0" d="M0.39 9.24l-0.39 0 0 -9.24 2.57 0c0.53,0 0.97,0.04 1.3,0.12 0.34,0.09 0.65,0.23 0.93,0.42 0.38,0.27 0.68,0.63 0.89,1.07 0.22,0.43 0.33,0.9 0.33,1.39 0,0.73 -0.22,1.36 -0.65,1.89 -0.37,0.45 -0.83,0.73 -1.36,0.83l2.16 3.5 -1.37 0 0 -0.39 0.68 0 -2.12 -3.43 0.32 -0.02c0.56,-0.04 1.01,-0.28 1.39,-0.74 0.37,-0.45 0.56,-1 0.56,-1.64 0,-0.43 -0.09,-0.84 -0.28,-1.22 -0.19,-0.38 -0.45,-0.69 -0.77,-0.92 -0.24,-0.17 -0.51,-0.29 -0.8,-0.36 -0.3,-0.07 -0.71,-0.11 -1.21,-0.11l-2.18 0 0 8.85z"/>
 </g>
</svg>
